<?xml version="1.0" encoding="UTF-8"?>
<!DOCTYPE svg PUBLIC "-//W3C//DTD SVG 1.1//EN" "http://www.w3.org/Graphics/SVG/1.1/DTD/svg11.dtd">
<svg xmlns="http://www.w3.org/2000/svg" version="1.1" width="306px" height="418px" style="shape-rendering:geometricPrecision; text-rendering:geometricPrecision; image-rendering:optimizeQuality; fill-rule:evenodd; clip-rule:evenodd" xmlns:xlink="http://www.w3.org/1999/xlink">
<g><path style="opacity:0.157" fill="#f5f4ef" d="M 257.5,88.5 C 252.367,86.623 247.367,84.4563 242.5,82C 238.962,81.4652 235.628,80.6319 232.5,79.5C 224.344,78.3434 216.01,78.1768 207.5,79C 205.277,79.5662 203.277,80.3995 201.5,81.5C 198.848,81.4095 196.515,82.0762 194.5,83.5C 192.033,83.7549 190.033,84.7549 188.5,86.5C 175.027,94.304 162.693,103.637 151.5,114.5C 139.251,123.08 127.584,132.414 116.5,142.5C 108.526,147.81 101.526,154.143 95.5,161.5C 94.8401,162.964 94.5068,164.631 94.5,166.5C 94.5561,168.64 95.2227,170.306 96.5,171.5C 102.021,180.204 109.354,181.87 118.5,176.5C 118.489,178.017 117.823,179.184 116.5,180C 111.167,180.667 105.833,180.667 100.5,180C 99.1218,178.287 97.4552,176.953 95.5,176C 91.5359,168.877 91.5359,161.71 95.5,154.5C 124.235,130.625 153.569,107.459 183.5,85C 199.074,76.79 215.741,74.1233 233.5,77C 239.234,78.6243 244.901,80.6243 250.5,83C 253.319,84.3706 255.653,86.2039 257.5,88.5 Z"/></g>
<g><path style="opacity:0.769" fill="#e8b26a" d="M 232.5,79.5 C 224.316,79.1743 216.316,79.5076 208.5,80.5C 206.194,80.9926 203.861,81.3259 201.5,81.5C 203.277,80.3995 205.277,79.5662 207.5,79C 216.01,78.1768 224.344,78.3434 232.5,79.5 Z"/></g>
<g><path style="opacity:0.965" fill="#e1a24f" d="M 201.5,81.5 C 199.485,82.9238 197.152,83.5905 194.5,83.5C 196.515,82.0762 198.848,81.4095 201.5,81.5 Z"/></g>
<g><path style="opacity:0.902" fill="#e0b46c" d="M 194.5,83.5 C 193.41,84.8571 192.076,85.8571 190.5,86.5C 189.833,86.5 189.167,86.5 188.5,86.5C 190.033,84.7549 192.033,83.7549 194.5,83.5 Z"/></g>
<g><path style="opacity:1" fill="#fe9e14" d="M 208.5,80.5 C 217.685,80.3793 226.352,81.546 234.5,84C 233.874,84.7504 233.374,85.5838 233,86.5C 231.312,84.1517 229.478,83.9851 227.5,86C 228.357,86.6891 229.023,87.5224 229.5,88.5C 235.425,89.4286 241.425,91.0953 247.5,93.5C 248.187,91.4453 249.354,89.7786 251,88.5C 254.971,90.9718 258.805,93.6385 262.5,96.5C 264.374,100.384 267.041,103.717 270.5,106.5C 268.668,107.057 267.335,108.057 266.5,109.5C 266.389,110.117 266.056,110.617 265.5,111C 266.833,111.667 268.167,112.333 269.5,113C 268.833,113.167 268.167,113.333 267.5,113.5C 264.898,112.945 262.231,112.779 259.5,113C 260.672,112.581 261.672,111.915 262.5,111C 260.564,110.187 258.564,109.687 256.5,109.5C 256.767,112.775 255.767,113.608 253.5,112C 253.833,111.667 254.167,111.333 254.5,111C 251.221,108.589 247.555,106.922 243.5,106C 242.228,104.693 241.228,103.193 240.5,101.5C 239.184,104.028 238.017,104.028 237,101.5C 236,102.833 235,102.833 234,101.5C 233.667,102.167 233.333,102.833 233,103.5C 231.667,102.167 230.333,100.833 229,99.5C 228.517,100.448 228.351,101.448 228.5,102.5C 226.523,101.851 224.69,101.851 223,102.5C 221.739,102.241 220.739,101.574 220,100.5C 217.777,102.671 215.277,103.504 212.5,103C 211.316,104.145 211.316,105.312 212.5,106.5C 206.32,107.59 200.987,110.257 196.5,114.5C 195.391,114.557 194.391,114.89 193.5,115.5C 192.402,114.603 192.402,113.77 193.5,113C 192.833,112.667 192.167,112.333 191.5,112C 192.939,111.009 193.939,109.676 194.5,108C 193.833,107.667 193.167,107.333 192.5,107C 195.252,104.316 197.919,101.65 200.5,99C 197.17,100.696 193.503,102.029 189.5,103C 190.604,104.131 190.271,104.965 188.5,105.5C 187.817,105.137 187.15,104.804 186.5,104.5C 186.047,103.542 185.381,102.708 184.5,102C 186.044,101.71 187.377,101.044 188.5,100C 188,99.5 187.5,99 187,98.5C 185.374,98.8541 183.541,98.8541 181.5,98.5C 181.372,96.3453 181.872,94.3453 183,92.5C 183.333,92.8333 183.667,93.1667 184,93.5C 186.183,91.0929 188.35,88.7596 190.5,86.5C 192.076,85.8571 193.41,84.8571 194.5,83.5C 197.152,83.5905 199.485,82.9238 201.5,81.5C 203.861,81.3259 206.194,80.9926 208.5,80.5 Z"/></g>
<g><path style="opacity:0.102" fill="#f6eae4" d="M 257.5,88.5 C 259.179,88.2852 260.179,88.9519 260.5,90.5C 258.973,90.573 257.973,89.9063 257.5,88.5 Z"/></g>
<g><path style="opacity:0.027" fill="#f9e9da" d="M 260.5,90.5 C 262.711,90.9668 264.711,91.9668 266.5,93.5C 268.891,95.5529 270.891,97.8863 272.5,100.5C 268.202,97.5367 264.202,94.2034 260.5,90.5 Z"/></g>
<g><path style="opacity:1" fill="#fc9715" d="M 188.5,86.5 C 189.167,86.5 189.833,86.5 190.5,86.5C 188.35,88.7596 186.183,91.0929 184,93.5C 183.667,93.1667 183.333,92.8333 183,92.5C 181.872,94.3453 181.372,96.3453 181.5,98.5C 183.541,98.8541 185.374,98.8541 187,98.5C 187.5,99 188,99.5 188.5,100C 187.377,101.044 186.044,101.71 184.5,102C 185.381,102.708 186.047,103.542 186.5,104.5C 185.77,106.045 184.437,106.878 182.5,107C 183.5,107.333 184.5,107.667 185.5,108C 182.052,109.194 179.052,111.027 176.5,113.5C 177.326,114.451 177.492,115.451 177,116.5C 176.667,116.167 176.333,115.833 176,115.5C 175.623,116.942 174.79,117.942 173.5,118.5C 171.014,120.464 168.181,121.798 165,122.5C 164.259,121.359 163.425,121.359 162.5,122.5C 160.547,118.588 158.713,118.588 157,122.5C 155.667,121.167 154.333,121.167 153,122.5C 152.508,121.451 152.674,120.451 153.5,119.5C 153,118.5 152.5,117.5 152,116.5C 151.346,117.696 150.846,117.696 150.5,116.5C 150.863,115.817 151.196,115.15 151.5,114.5C 162.693,103.637 175.027,94.304 188.5,86.5 Z"/></g>
<g><path style="opacity:0.991" fill="#fd9914" d="M 193.5,115.5 C 190.861,117.473 188.527,119.806 186.5,122.5C 183.545,124.122 180.878,126.122 178.5,128.5C 174.091,131.367 170.091,134.701 166.5,138.5C 165.833,138.5 165.167,138.5 164.5,138.5C 164.452,135.708 165.785,133.875 168.5,133C 167.695,131.028 166.361,129.528 164.5,128.5C 166.489,128.468 168.489,127.635 170.5,126C 168.314,125.396 168.148,124.23 170,122.5C 170.333,122.833 170.667,123.167 171,123.5C 172.399,122.773 173.899,122.273 175.5,122C 174.5,121.667 173.5,121.333 172.5,121C 173.252,120.329 173.586,119.496 173.5,118.5C 174.79,117.942 175.623,116.942 176,115.5C 176.333,115.833 176.667,116.167 177,116.5C 177.492,115.451 177.326,114.451 176.5,113.5C 179.052,111.027 182.052,109.194 185.5,108C 184.5,107.667 183.5,107.333 182.5,107C 184.437,106.878 185.77,106.045 186.5,104.5C 187.15,104.804 187.817,105.137 188.5,105.5C 190.271,104.965 190.604,104.131 189.5,103C 193.503,102.029 197.17,100.696 200.5,99C 197.919,101.65 195.252,104.316 192.5,107C 193.167,107.333 193.833,107.667 194.5,108C 193.939,109.676 192.939,111.009 191.5,112C 192.167,112.333 192.833,112.667 193.5,113C 192.402,113.77 192.402,114.603 193.5,115.5 Z"/></g>
<g><path style="opacity:0.999" fill="#fc9818" d="M 266.5,109.5 C 267.708,110.234 269.041,110.567 270.5,110.5C 270.281,111.675 270.614,112.675 271.5,113.5C 272.72,112.289 273.887,112.289 275,113.5C 275.667,112.833 276.333,112.167 277,111.5C 279.992,114.299 281.992,117.632 283,121.5C 283.333,121.167 283.667,120.833 284,120.5C 284.2,122.32 285.034,123.653 286.5,124.5C 286.935,130.842 287.102,137.175 287,143.5C 286.167,142.667 285.333,141.833 284.5,141C 285.451,140.282 285.617,139.449 285,138.5C 284.333,139.833 283.667,139.833 283,138.5C 282.316,137.216 282.483,136.049 283.5,135C 280.766,137.126 278.099,136.793 275.5,134C 278.492,132.893 279.159,131.226 277.5,129C 275.591,128.552 274.424,129.385 274,131.5C 273.667,129.833 273.333,128.167 273,126.5C 271.384,127.545 269.717,128.545 268,129.5C 267.021,127.68 265.521,126.513 263.5,126C 265.26,125.035 265.594,123.868 264.5,122.5C 263.833,123.167 263.167,123.833 262.5,124.5C 261.099,122.723 259.599,121.056 258,119.5C 256.582,122.001 255.582,121.668 255,118.5C 254.329,119.252 253.496,119.586 252.5,119.5C 241.101,109.642 227.768,105.308 212.5,106.5C 211.316,105.312 211.316,104.145 212.5,103C 215.277,103.504 217.777,102.671 220,100.5C 220.739,101.574 221.739,102.241 223,102.5C 224.69,101.851 226.523,101.851 228.5,102.5C 228.351,101.448 228.517,100.448 229,99.5C 230.333,100.833 231.667,102.167 233,103.5C 233.333,102.833 233.667,102.167 234,101.5C 235,102.833 236,102.833 237,101.5C 238.017,104.028 239.184,104.028 240.5,101.5C 241.228,103.193 242.228,104.693 243.5,106C 247.555,106.922 251.221,108.589 254.5,111C 254.167,111.333 253.833,111.667 253.5,112C 255.767,113.608 256.767,112.775 256.5,109.5C 258.564,109.687 260.564,110.187 262.5,111C 261.672,111.915 260.672,112.581 259.5,113C 262.231,112.779 264.898,112.945 267.5,113.5C 268.167,113.333 268.833,113.167 269.5,113C 268.167,112.333 266.833,111.667 265.5,111C 266.056,110.617 266.389,110.117 266.5,109.5 Z"/></g>
<g><path style="opacity:0.997" fill="#fda423" d="M 208.5,80.5 C 216.316,79.5076 224.316,79.1743 232.5,79.5C 235.628,80.6319 238.962,81.4652 242.5,82C 247.367,84.4563 252.367,86.623 257.5,88.5C 257.973,89.9063 258.973,90.573 260.5,90.5C 264.202,94.2034 268.202,97.5367 272.5,100.5C 273.443,103.109 275.11,105.109 277.5,106.5C 278.338,106.842 278.672,107.508 278.5,108.5C 279.475,110.795 280.808,112.795 282.5,114.5C 282.989,115.995 283.655,117.329 284.5,118.5C 284.989,119.995 285.655,121.329 286.5,122.5C 286.5,123.167 286.5,123.833 286.5,124.5C 285.034,123.653 284.2,122.32 284,120.5C 283.667,120.833 283.333,121.167 283,121.5C 281.992,117.632 279.992,114.299 277,111.5C 276.333,112.167 275.667,112.833 275,113.5C 273.887,112.289 272.72,112.289 271.5,113.5C 270.614,112.675 270.281,111.675 270.5,110.5C 269.041,110.567 267.708,110.234 266.5,109.5C 267.335,108.057 268.668,107.057 270.5,106.5C 267.041,103.717 264.374,100.384 262.5,96.5C 258.805,93.6385 254.971,90.9718 251,88.5C 249.354,89.7786 248.187,91.4453 247.5,93.5C 241.425,91.0953 235.425,89.4286 229.5,88.5C 229.023,87.5224 228.357,86.6891 227.5,86C 229.478,83.9851 231.312,84.1517 233,86.5C 233.374,85.5838 233.874,84.7504 234.5,84C 226.352,81.546 217.685,80.3793 208.5,80.5 Z"/></g>
<g><path style="opacity:0.024" fill="#f8eee8" d="M 272.5,100.5 C 275.236,101.573 276.903,103.573 277.5,106.5C 275.11,105.109 273.443,103.109 272.5,100.5 Z"/></g>
<g><path style="opacity:0.009" fill="#f8eee4" d="M 278.5,108.5 C 281.313,109.446 282.646,111.446 282.5,114.5C 280.808,112.795 279.475,110.795 278.5,108.5 Z"/></g>
<g><path style="opacity:0.008" fill="#f3f0ec" d="M 282.5,114.5 C 284.176,115.183 284.843,116.517 284.5,118.5C 283.655,117.329 282.989,115.995 282.5,114.5 Z"/></g>
<g><path style="opacity:0.09" fill="#f4e6df" d="M 196.5,114.5 C 196.279,115.735 195.612,116.735 194.5,117.5C 192.055,119.629 189.389,121.296 186.5,122.5C 188.527,119.806 190.861,117.473 193.5,115.5C 194.391,114.89 195.391,114.557 196.5,114.5 Z"/></g>
<g><path style="opacity:0.291" fill="#f9f5f2" d="M 212.5,106.5 C 227.768,105.308 241.101,109.642 252.5,119.5C 256.192,123.547 258.859,128.214 260.5,133.5C 260.41,136.152 261.076,138.485 262.5,140.5C 262.5,197.833 262.5,255.167 262.5,312.5C 261.767,318.198 259.934,323.531 257,328.5C 246.936,337.406 236.769,346.073 226.5,354.5C 217.942,360.212 209.775,366.545 202,373.5C 200.663,377.026 200.163,380.692 200.5,384.5C 200.427,386.027 201.094,387.027 202.5,387.5C 203.604,389.389 204.937,391.055 206.5,392.5C 199.673,391.071 196.34,386.738 196.5,379.5C 196.876,375.76 197.543,372.094 198.5,368.5C 199.833,368.5 201.167,368.5 202.5,368.5C 202.33,367.178 202.663,366.011 203.5,365C 219.129,353.082 234.795,341.249 250.5,329.5C 253.675,325.507 256.175,321.174 258,316.5C 258.833,256.497 258.667,196.497 257.5,136.5C 249.085,115.791 233.752,106.625 211.5,109C 206.085,109.791 201.085,111.624 196.5,114.5C 200.987,110.257 206.32,107.59 212.5,106.5 Z"/></g>
<g><path style="opacity:0.999" fill="#fd9315" d="M 151.5,114.5 C 151.196,115.15 150.863,115.817 150.5,116.5C 150.846,117.696 151.346,117.696 152,116.5C 152.5,117.5 153,118.5 153.5,119.5C 152.674,120.451 152.508,121.451 153,122.5C 154.333,121.167 155.667,121.167 157,122.5C 158.713,118.588 160.547,118.588 162.5,122.5C 163.425,121.359 164.259,121.359 165,122.5C 168.181,121.798 171.014,120.464 173.5,118.5C 173.586,119.496 173.252,120.329 172.5,121C 173.5,121.333 174.5,121.667 175.5,122C 173.899,122.273 172.399,122.773 171,123.5C 170.667,123.167 170.333,122.833 170,122.5C 168.148,124.23 168.314,125.396 170.5,126C 168.489,127.635 166.489,128.468 164.5,128.5C 166.361,129.528 167.695,131.028 168.5,133C 165.785,133.875 164.452,135.708 164.5,138.5C 158.203,143.462 152.203,148.795 146.5,154.5C 142.854,156.817 139.52,159.484 136.5,162.5C 133.851,164.14 131.184,165.807 128.5,167.5C 128.229,165.179 128.896,163.179 130.5,161.5C 129.975,160.808 129.308,160.308 128.5,160C 131.447,159.888 132.78,158.388 132.5,155.5C 133.675,155.719 134.675,155.386 135.5,154.5C 136.018,152.1 137.185,150.1 139,148.5C 139.563,147.275 139.23,146.275 138,145.5C 136.601,146.227 135.101,146.727 133.5,147C 134.641,147.741 134.641,148.575 133.5,149.5C 132.201,151.142 130.701,152.476 129,153.5C 128.747,152.465 127.914,151.465 126.5,150.5C 124.593,152.76 122.593,152.927 120.5,151C 122.095,151.617 123.428,151.284 124.5,150C 122.699,149.683 122.366,149.016 123.5,148C 121.874,148.195 120.207,148.195 118.5,148C 121.204,145.071 120.537,143.237 116.5,142.5C 127.584,132.414 139.251,123.08 151.5,114.5 Z"/></g>
<g><path style="opacity:0.014" fill="#f7f3ed" d="M 284.5,118.5 C 286.176,119.183 286.843,120.517 286.5,122.5C 285.655,121.329 284.989,119.995 284.5,118.5 Z"/></g>
<g><path style="opacity:1" fill="#fd9418" d="M 38.5,118.5 C 38.5,120.167 38.5,121.833 38.5,123.5C 37.4667,126.986 36.6334,130.653 36,134.5C 35.3457,133.304 34.8457,133.304 34.5,134.5C 35.3256,135.451 35.4922,136.451 35,137.5C 34.3333,136.167 33.6667,136.167 33,137.5C 32.4478,134.953 31.1144,132.953 29,131.5C 28,134.167 27,134.167 26,131.5C 23.9252,132.895 22.0919,132.562 20.5,130.5C 19.7568,131.908 18.9234,133.241 18,134.5C 15.8942,132.623 14.5609,130.29 14,127.5C 13.6667,128.167 13.3333,128.833 13,129.5C 12.6667,127.5 12.3333,125.5 12,123.5C 11.5034,125.81 11.3367,128.143 11.5,130.5C 9.363,119.133 14.0297,112.133 25.5,109.5C 31.4198,110.287 35.7531,113.287 38.5,118.5 Z"/></g>
<g><path style="opacity:0.016" fill="#f8ebe4" d="M 186.5,122.5 C 184.668,125.672 182.001,127.672 178.5,128.5C 180.878,126.122 183.545,124.122 186.5,122.5 Z"/></g>
<g><path style="opacity:1" fill="#f79224" d="M 286.5,124.5 C 288.036,126.025 289.036,128.025 289.5,130.5C 290.48,133.086 290.813,135.753 290.5,138.5C 289.669,149.659 289.169,160.993 289,172.5C 288.431,168.639 287.598,168.639 286.5,172.5C 283.657,170.713 280.657,169.38 277.5,168.5C 276.179,173.747 273.679,174.414 270,170.5C 268.7,171.707 267.2,172.374 265.5,172.5C 265.645,167.632 265.145,162.632 264,157.5C 263.5,167.161 263.334,176.828 263.5,186.5C 263.5,188.167 263.5,189.833 263.5,191.5C 263.5,200.5 263.5,209.5 263.5,218.5C 263.5,229.833 263.5,241.167 263.5,252.5C 263.5,262.833 263.5,273.167 263.5,283.5C 263.5,292.833 263.5,302.167 263.5,311.5C 263.5,312.167 263.167,312.5 262.5,312.5C 262.5,255.167 262.5,197.833 262.5,140.5C 262.59,137.848 261.924,135.515 260.5,133.5C 258.859,128.214 256.192,123.547 252.5,119.5C 253.496,119.586 254.329,119.252 255,118.5C 255.582,121.668 256.582,122.001 258,119.5C 259.599,121.056 261.099,122.723 262.5,124.5C 263.167,123.833 263.833,123.167 264.5,122.5C 265.594,123.868 265.26,125.035 263.5,126C 265.521,126.513 267.021,127.68 268,129.5C 269.717,128.545 271.384,127.545 273,126.5C 273.333,128.167 273.667,129.833 274,131.5C 274.424,129.385 275.591,128.552 277.5,129C 279.159,131.226 278.492,132.893 275.5,134C 278.099,136.793 280.766,137.126 283.5,135C 282.483,136.049 282.316,137.216 283,138.5C 283.667,139.833 284.333,139.833 285,138.5C 285.617,139.449 285.451,140.282 284.5,141C 285.333,141.833 286.167,142.667 287,143.5C 287.102,137.175 286.935,130.842 286.5,124.5 Z"/></g>
<g><path style="opacity:0.111" fill="#faf0ea" d="M 40.5,120.5 C 40.1667,120.5 39.8333,120.5 39.5,120.5C 39.6716,119.508 39.3382,118.842 38.5,118.5C 35.7531,113.287 31.4198,110.287 25.5,109.5C 14.0297,112.133 9.363,119.133 11.5,130.5C 11.5,135.833 11.5,141.167 11.5,146.5C 11.5,200.167 11.5,253.833 11.5,307.5C 11.3345,311.514 11.5012,315.514 12,319.5C 12.6972,321.584 13.8639,323.251 15.5,324.5C 15.8333,325.5 16.5,326.167 17.5,326.5C 17.8333,327.167 18.1667,327.833 18.5,328.5C 16.3393,328.174 14.5059,327.174 13,325.5C 11.676,323.172 10.3426,320.839 9,318.5C 8.16669,251.831 8.33336,185.164 9.5,118.5C 16.0667,105.382 25.4,103.048 37.5,111.5C 39.698,114.094 40.698,117.094 40.5,120.5 Z"/></g>
<g><path style="opacity:1" fill="#fc8c15" d="M 38.5,123.5 C 38.5,133.5 38.5,143.5 38.5,153.5C 37.6909,151.708 37.1909,149.708 37,147.5C 36.5829,150.422 35.5829,153.089 34,155.5C 33.7171,150.3 32.2171,149.633 29.5,153.5C 30.724,155.839 30.724,158.172 29.5,160.5C 29.1667,160.333 28.8333,160.167 28.5,160C 28.6651,158.883 28.9984,157.716 29.5,156.5C 28.846,154.885 28.346,153.218 28,151.5C 27.6667,152.167 27.3333,152.833 27,153.5C 26.3131,151.432 26.4798,149.432 27.5,147.5C 26.9649,145.339 26.1316,143.339 25,141.5C 25.5844,143.7 25.4177,145.867 24.5,148C 23.2234,148.127 22.0567,147.627 21,146.5C 19.4352,147.952 18.1018,149.619 17,151.5C 16.1072,150.289 15.2739,150.289 14.5,151.5C 13.5934,154.421 13.2601,157.421 13.5,160.5C 12.8333,155.833 12.1667,151.167 11.5,146.5C 11.5,141.167 11.5,135.833 11.5,130.5C 11.3367,128.143 11.5034,125.81 12,123.5C 12.3333,125.5 12.6667,127.5 13,129.5C 13.3333,128.833 13.6667,128.167 14,127.5C 14.5609,130.29 15.8942,132.623 18,134.5C 18.9234,133.241 19.7568,131.908 20.5,130.5C 22.0919,132.562 23.9252,132.895 26,131.5C 27,134.167 28,134.167 29,131.5C 31.1144,132.953 32.4478,134.953 33,137.5C 33.6667,136.167 34.3333,136.167 35,137.5C 35.4922,136.451 35.3256,135.451 34.5,134.5C 34.8457,133.304 35.3457,133.304 36,134.5C 36.6334,130.653 37.4667,126.986 38.5,123.5 Z"/></g>
<g><path style="opacity:0.063" fill="#f7e5df" d="M 178.5,128.5 C 178.489,130.017 177.823,131.184 176.5,132C 173.522,134.829 170.189,136.996 166.5,138.5C 170.091,134.701 174.091,131.367 178.5,128.5 Z"/></g>
<g><path style="opacity:0.929" fill="#ecc197" d="M 260.5,133.5 C 261.924,135.515 262.59,137.848 262.5,140.5C 261.076,138.485 260.41,136.152 260.5,133.5 Z"/></g>
<g><path style="opacity:0.015" fill="#f4fffe" d="M 40.5,120.5 C 41.1977,127.704 41.8644,135.037 42.5,142.5C 41.8616,199.841 41.1949,257.174 40.5,314.5C 40.5,249.833 40.5,185.167 40.5,120.5 Z"/></g>
<g><path style="opacity:0.078" fill="#f4e4df" d="M 164.5,138.5 C 165.167,138.5 165.833,138.5 166.5,138.5C 165.091,140.417 163.424,142.25 161.5,144C 156.817,148.065 151.817,151.565 146.5,154.5C 152.203,148.795 158.203,143.462 164.5,138.5 Z"/></g>
<g><path style="opacity:1" fill="#fa8612" d="M 38.5,153.5 C 38.5,161.833 38.5,170.167 38.5,178.5C 37.6981,177.048 37.1981,175.382 37,173.5C 36.4412,177.186 35.7745,180.853 35,184.5C 33.3538,183.059 33.1871,181.392 34.5,179.5C 34.278,177.945 33.6113,176.611 32.5,175.5C 33.4279,174.232 33.5946,172.899 33,171.5C 32.1241,173.725 30.9574,175.725 29.5,177.5C 28.8076,176.975 28.3076,176.308 28,175.5C 26.3335,176.34 26.1669,175.84 27.5,174C 26.2845,171.904 25.4512,172.071 25,174.5C 23.9025,173.033 22.4025,172.199 20.5,172C 21.6956,171.346 21.6956,170.846 20.5,170.5C 19.5713,171.689 19.238,173.022 19.5,174.5C 18.5,174.5 17.5,174.5 16.5,174.5C 15.9129,169.964 14.9129,165.631 13.5,161.5C 13.5,161.167 13.5,160.833 13.5,160.5C 13.2601,157.421 13.5934,154.421 14.5,151.5C 15.2739,150.289 16.1072,150.289 17,151.5C 18.1018,149.619 19.4352,147.952 21,146.5C 22.0567,147.627 23.2234,148.127 24.5,148C 25.4177,145.867 25.5844,143.7 25,141.5C 26.1316,143.339 26.9649,145.339 27.5,147.5C 26.4798,149.432 26.3131,151.432 27,153.5C 27.3333,152.833 27.6667,152.167 28,151.5C 28.346,153.218 28.846,154.885 29.5,156.5C 28.9984,157.716 28.6651,158.883 28.5,160C 28.8333,160.167 29.1667,160.333 29.5,160.5C 30.724,158.172 30.724,155.839 29.5,153.5C 32.2171,149.633 33.7171,150.3 34,155.5C 35.5829,153.089 36.5829,150.422 37,147.5C 37.1909,149.708 37.6909,151.708 38.5,153.5 Z"/></g>
<g><path style="opacity:1" fill="#fd8d13" d="M 116.5,142.5 C 120.537,143.237 121.204,145.071 118.5,148C 120.207,148.195 121.874,148.195 123.5,148C 122.366,149.016 122.699,149.683 124.5,150C 123.428,151.284 122.095,151.617 120.5,151C 122.593,152.927 124.593,152.76 126.5,150.5C 127.914,151.465 128.747,152.465 129,153.5C 130.701,152.476 132.201,151.142 133.5,149.5C 134.641,148.575 134.641,147.741 133.5,147C 135.101,146.727 136.601,146.227 138,145.5C 139.23,146.275 139.563,147.275 139,148.5C 137.185,150.1 136.018,152.1 135.5,154.5C 134.675,155.386 133.675,155.719 132.5,155.5C 132.78,158.388 131.447,159.888 128.5,160C 129.308,160.308 129.975,160.808 130.5,161.5C 128.896,163.179 128.229,165.179 128.5,167.5C 125.167,170.5 121.833,173.5 118.5,176.5C 109.354,181.87 102.021,180.204 96.5,171.5C 95.6758,168.236 95.3424,164.902 95.5,161.5C 101.526,154.143 108.526,147.81 116.5,142.5 Z"/></g>
<g><path style="opacity:0.043" fill="#f7ebea" d="M 146.5,154.5 C 144.067,158.263 140.734,160.93 136.5,162.5C 139.52,159.484 142.854,156.817 146.5,154.5 Z"/></g>
<g><path style="opacity:0.987" fill="#fc8c1a" d="M 216.5,152.5 C 227.21,155.338 230.543,162.004 226.5,172.5C 225.026,173.436 224.026,174.77 223.5,176.5C 221.251,177.08 219.585,178.413 218.5,180.5C 218.167,181.5 217.5,182.167 216.5,182.5C 214.973,182.427 213.973,183.094 213.5,184.5C 213.5,185.167 213.167,185.5 212.5,185.5C 210.596,185.738 209.262,186.738 208.5,188.5C 208.167,188.5 207.833,188.5 207.5,188.5C 207.238,187.022 207.571,185.689 208.5,184.5C 210.303,183.863 211.636,182.697 212.5,181C 214.134,180.506 215.801,180.34 217.5,180.5C 217.67,179.178 217.337,178.011 216.5,177C 217.448,176.517 218.448,176.351 219.5,176.5C 219.67,175.178 219.337,174.011 218.5,173C 216.5,173 214.5,173 212.5,173C 213.5,172.167 214.5,171.333 215.5,170.5C 213.009,169.459 213.009,168.626 215.5,168C 214.833,167.333 214.167,166.667 213.5,166C 215.213,164.622 216.547,162.955 217.5,161C 217,160.5 216.5,160 216,159.5C 213.116,163.404 209.283,165.738 204.5,166.5C 202.158,166.225 202.158,165.392 204.5,164C 203.354,163.355 202.354,162.522 201.5,161.5C 200.056,162.981 199.389,162.648 199.5,160.5C 201.637,157.027 204.637,154.694 208.5,153.5C 211.096,152.735 213.763,152.401 216.5,152.5 Z"/></g>
<g><path style="opacity:1" fill="#fb8414" d="M 199.5,160.5 C 199.389,162.648 200.056,162.981 201.5,161.5C 202.354,162.522 203.354,163.355 204.5,164C 202.158,165.392 202.158,166.225 204.5,166.5C 205.112,170.876 203.946,171.543 201,168.5C 200.517,169.448 200.351,170.448 200.5,171.5C 202.993,171.131 203.66,171.797 202.5,173.5C 201.206,175.907 199.539,178.074 197.5,180C 197.833,180.333 198.167,180.667 198.5,181C 196.167,182 194.5,183.667 193.5,186C 192.552,186.483 191.552,186.649 190.5,186.5C 190.778,188.346 190.111,189.68 188.5,190.5C 187.304,190.154 187.304,189.654 188.5,189C 187.167,188.667 185.833,188.333 184.5,188C 185.833,187.333 185.833,186.667 184.5,186C 186.5,185.667 188.5,185.333 190.5,185C 186.411,184.731 182.744,183.398 179.5,181C 182.228,180.361 182.728,179.194 181,177.5C 180.692,178.308 180.192,178.975 179.5,179.5C 178.438,178.575 178.438,177.575 179.5,176.5C 185.428,170.208 192.095,164.875 199.5,160.5 Z"/></g>
<g><path style="opacity:1" fill="#f58517" d="M 290.5,138.5 C 290.5,155.5 290.5,172.5 290.5,189.5C 289.879,199.534 288.879,209.534 287.5,219.5C 287.861,212.889 287.194,206.389 285.5,200C 285.794,196.904 286.127,193.737 286.5,190.5C 285.027,185.892 283.194,186.225 281,191.5C 281.07,188.733 280.07,186.066 278,183.5C 277.573,186.942 275.74,188.442 272.5,188C 273.869,185.761 273.369,183.927 271,182.5C 269.139,184.888 267.806,187.554 267,190.5C 266.943,188.09 265.776,186.756 263.5,186.5C 263.334,176.828 263.5,167.161 264,157.5C 265.145,162.632 265.645,167.632 265.5,172.5C 267.2,172.374 268.7,171.707 270,170.5C 273.679,174.414 276.179,173.747 277.5,168.5C 280.657,169.38 283.657,170.713 286.5,172.5C 287.598,168.639 288.431,168.639 289,172.5C 289.169,160.993 289.669,149.659 290.5,138.5 Z"/></g>
<g><path style="opacity:0.282" fill="#eec6a9" d="M 95.5,161.5 C 95.3424,164.902 95.6758,168.236 96.5,171.5C 95.2227,170.306 94.5561,168.64 94.5,166.5C 94.5068,164.631 94.8401,162.964 95.5,161.5 Z"/></g>
<g><path style="opacity:0.086" fill="#f4e4df" d="M 136.5,162.5 C 131.981,166.801 127.314,171.134 122.5,175.5C 121.311,176.429 119.978,176.762 118.5,176.5C 121.833,173.5 125.167,170.5 128.5,167.5C 131.184,165.807 133.851,164.14 136.5,162.5 Z"/></g>
<g><path style="opacity:0.008" fill="#fae8dd" d="M 226.5,172.5 C 226.912,174.973 225.912,176.306 223.5,176.5C 224.026,174.77 225.026,173.436 226.5,172.5 Z"/></g>
<g><path style="opacity:0.031" fill="#f6e3df" d="M 223.5,176.5 C 222.735,178.929 221.069,180.262 218.5,180.5C 219.585,178.413 221.251,177.08 223.5,176.5 Z"/></g>
<g><path style="opacity:0.993" fill="#fd8514" d="M 207.5,188.5 C 207.167,189.167 206.833,189.833 206.5,190.5C 205.29,190.932 204.29,191.599 203.5,192.5C 202.5,192.833 201.833,193.5 201.5,194.5C 199.973,194.427 198.973,195.094 198.5,196.5C 197.5,196.833 196.833,197.5 196.5,198.5C 194.589,199.075 192.922,200.075 191.5,201.5C 190.791,200.596 189.791,200.263 188.5,200.5C 188.5,199.5 188.5,198.5 188.5,197.5C 187.448,197.649 186.448,197.483 185.5,197C 186.551,195.615 187.884,194.615 189.5,194C 188.346,193.086 188.513,192.253 190,191.5C 190.333,191.833 190.667,192.167 191,192.5C 191.667,191.167 192.333,189.833 193,188.5C 197.069,184.599 201.569,181.266 206.5,178.5C 205.391,177.035 205.891,176.035 208,175.5C 209.267,173.576 209.267,171.91 208,170.5C 206.098,171.206 204.265,172.206 202.5,173.5C 203.66,171.797 202.993,171.131 200.5,171.5C 200.351,170.448 200.517,169.448 201,168.5C 203.946,171.543 205.112,170.876 204.5,166.5C 209.283,165.738 213.116,163.404 216,159.5C 216.5,160 217,160.5 217.5,161C 216.547,162.955 215.213,164.622 213.5,166C 214.167,166.667 214.833,167.333 215.5,168C 213.009,168.626 213.009,169.459 215.5,170.5C 214.5,171.333 213.5,172.167 212.5,173C 214.5,173 216.5,173 218.5,173C 219.337,174.011 219.67,175.178 219.5,176.5C 218.448,176.351 217.448,176.517 216.5,177C 217.337,178.011 217.67,179.178 217.5,180.5C 215.801,180.34 214.134,180.506 212.5,181C 211.636,182.697 210.303,183.863 208.5,184.5C 207.571,185.689 207.238,187.022 207.5,188.5 Z"/></g>
<g><path style="opacity:1" fill="#f57f17" d="M 287.5,219.5 C 287.666,223.514 287.499,227.514 287,231.5C 286.251,227.917 284.918,224.583 283,221.5C 282,222.833 281,224.167 280,225.5C 279.55,223.481 278.717,221.648 277.5,220C 276.451,219.508 275.451,219.674 274.5,220.5C 273.253,218.994 273.253,217.494 274.5,216C 273.086,213.572 271.086,211.739 268.5,210.5C 267.833,212.833 267.167,215.167 266.5,217.5C 265.749,216.624 265.249,215.624 265,214.5C 264.829,206.656 264.329,198.989 263.5,191.5C 263.5,189.833 263.5,188.167 263.5,186.5C 265.776,186.756 266.943,188.09 267,190.5C 267.806,187.554 269.139,184.888 271,182.5C 273.369,183.927 273.869,185.761 272.5,188C 275.74,188.442 277.573,186.942 278,183.5C 280.07,186.066 281.07,188.733 281,191.5C 283.194,186.225 285.027,185.892 286.5,190.5C 286.127,193.737 285.794,196.904 285.5,200C 287.194,206.389 287.861,212.889 287.5,219.5 Z"/></g>
<g><path style="opacity:0.035" fill="#f4e7e5" d="M 216.5,182.5 C 216.179,184.048 215.179,184.715 213.5,184.5C 213.973,183.094 214.973,182.427 216.5,182.5 Z"/></g>
<g><path style="opacity:0.999" fill="#fb7f15" d="M 191.5,201.5 C 190.167,202.167 189.167,203.167 188.5,204.5C 187.5,204.833 186.833,205.5 186.5,206.5C 183.956,203.693 182.956,204.36 183.5,208.5C 182.5,208.833 181.833,209.5 181.5,210.5C 179.973,210.427 178.973,211.094 178.5,212.5C 177.5,212.833 176.833,213.5 176.5,214.5C 174.251,215.08 172.585,216.413 171.5,218.5C 169.251,219.08 167.585,220.413 166.5,222.5C 165.5,222.833 164.833,223.5 164.5,224.5C 162.251,225.08 160.585,226.413 159.5,228.5C 157.246,229.124 155.579,230.457 154.5,232.5C 152.246,233.124 150.579,234.457 149.5,236.5C 147.246,237.124 145.579,238.457 144.5,240.5C 144.167,240.5 143.833,240.5 143.5,240.5C 145.72,236.541 147.053,232.208 147.5,227.5C 151.79,224.048 155.956,220.382 160,216.5C 161.787,213.051 163.954,209.884 166.5,207C 163.493,206.071 160.493,204.904 157.5,203.5C 156.5,202 155.5,200.5 154.5,199C 155.315,197.357 156.315,195.857 157.5,194.5C 164.537,188.129 171.871,182.129 179.5,176.5C 178.438,177.575 178.438,178.575 179.5,179.5C 180.192,178.975 180.692,178.308 181,177.5C 182.728,179.194 182.228,180.361 179.5,181C 182.744,183.398 186.411,184.731 190.5,185C 188.5,185.333 186.5,185.667 184.5,186C 185.833,186.667 185.833,187.333 184.5,188C 185.833,188.333 187.167,188.667 188.5,189C 187.304,189.654 187.304,190.154 188.5,190.5C 190.111,189.68 190.778,188.346 190.5,186.5C 191.552,186.649 192.552,186.483 193.5,186C 194.5,183.667 196.167,182 198.5,181C 198.167,180.667 197.833,180.333 197.5,180C 199.539,178.074 201.206,175.907 202.5,173.5C 204.265,172.206 206.098,171.206 208,170.5C 209.267,171.91 209.267,173.576 208,175.5C 205.891,176.035 205.391,177.035 206.5,178.5C 201.569,181.266 197.069,184.599 193,188.5C 192.333,189.833 191.667,191.167 191,192.5C 190.667,192.167 190.333,191.833 190,191.5C 188.513,192.253 188.346,193.086 189.5,194C 187.884,194.615 186.551,195.615 185.5,197C 186.448,197.483 187.448,197.649 188.5,197.5C 188.5,198.5 188.5,199.5 188.5,200.5C 189.791,200.263 190.791,200.596 191.5,201.5 Z"/></g>
<g><path style="opacity:0.047" fill="#ecd2c9" d="M 212.5,185.5 C 211.952,187.532 210.619,188.532 208.5,188.5C 209.262,186.738 210.596,185.738 212.5,185.5 Z"/></g>
<g><path style="opacity:0.324" fill="#f5f0ee" d="M 226.5,172.5 C 230.543,162.004 227.21,155.338 216.5,152.5C 215.551,151.848 214.385,151.514 213,151.5C 210.992,151.307 209.492,151.974 208.5,153.5C 204.637,154.694 201.637,157.027 199.5,160.5C 192.095,164.875 185.428,170.208 179.5,176.5C 171.871,182.129 164.537,188.129 157.5,194.5C 142.865,205.166 128.532,216.333 114.5,228C 112.915,230.069 111.581,232.236 110.5,234.5C 108.974,235.492 108.307,236.992 108.5,239C 108.307,241.008 108.974,242.508 110.5,243.5C 111.921,248.09 114.921,251.256 119.5,253C 125.188,253.824 130.188,252.324 134.5,248.5C 131.657,252.648 127.657,254.648 122.5,254.5C 112.631,253.631 106.965,248.298 105.5,238.5C 106.04,235.338 107.04,232.338 108.5,229.5C 118.445,219.979 129.112,211.312 140.5,203.5C 160.265,186.662 180.265,169.996 200.5,153.5C 211.589,145.583 220.755,147.249 228,158.5C 228.167,160.833 228.333,163.167 228.5,165.5C 228.471,168.269 227.805,170.603 226.5,172.5 Z"/></g>
<g><path style="opacity:0.773" fill="#d8a47e" d="M 216.5,152.5 C 213.763,152.401 211.096,152.735 208.5,153.5C 209.492,151.974 210.992,151.307 213,151.5C 214.385,151.514 215.551,151.848 216.5,152.5 Z"/></g>
<g><path style="opacity:0.016" fill="#f8e1de" d="M 207.5,188.5 C 207.833,188.5 208.167,188.5 208.5,188.5C 208.5,189.833 207.833,190.5 206.5,190.5C 206.833,189.833 207.167,189.167 207.5,188.5 Z"/></g>
<g><path style="opacity:0.008" fill="#f7e5e2" d="M 206.5,190.5 C 206.179,192.048 205.179,192.715 203.5,192.5C 204.29,191.599 205.29,190.932 206.5,190.5 Z"/></g>
<g><path style="opacity:0.016" fill="#f8e2d9" d="M 203.5,192.5 C 203.5,193.833 202.833,194.5 201.5,194.5C 201.833,193.5 202.5,192.833 203.5,192.5 Z"/></g>
<g><path style="opacity:0.039" fill="#f4d1c4" d="M 201.5,194.5 C 201.027,195.906 200.027,196.573 198.5,196.5C 198.973,195.094 199.973,194.427 201.5,194.5 Z"/></g>
<g><path style="opacity:0.26" fill="#f5e3df" d="M 39.5,120.5 C 39.8333,120.5 40.1667,120.5 40.5,120.5C 40.5,185.167 40.5,249.833 40.5,314.5C 40.8134,317.247 40.48,319.914 39.5,322.5C 38.7348,323.612 37.7348,324.279 36.5,324.5C 36.8333,323.167 37.1667,321.833 37.5,320.5C 38.404,319.791 38.7373,318.791 38.5,317.5C 39.4991,252.002 39.8325,186.335 39.5,120.5 Z"/></g>
<g><path style="opacity:0.016" fill="#f6e0db" d="M 198.5,196.5 C 198.5,197.833 197.833,198.5 196.5,198.5C 196.833,197.5 197.5,196.833 198.5,196.5 Z"/></g>
<g><path style="opacity:0.043" fill="#f0dad7" d="M 196.5,198.5 C 194.627,201.449 191.961,203.449 188.5,204.5C 189.167,203.167 190.167,202.167 191.5,201.5C 192.922,200.075 194.589,199.075 196.5,198.5 Z"/></g>
<g><path style="opacity:1" fill="#f47a28" d="M 38.5,118.5 C 39.3382,118.842 39.6716,119.508 39.5,120.5C 39.8325,186.335 39.4991,252.002 38.5,317.5C 38.6666,292.831 38.5,268.164 38,243.5C 37.9095,248.382 37.0762,253.049 35.5,257.5C 34.6236,257.631 33.9569,257.298 33.5,256.5C 34.4465,254.941 35.1132,253.274 35.5,251.5C 34.218,248.848 32.5514,245.681 30.5,242C 30.9369,239.551 30.9369,237.217 30.5,235C 29.1236,232.457 27.957,232.291 27,234.5C 26.2419,232.231 26.4086,230.064 27.5,228C 27.1667,227.833 26.8333,227.667 26.5,227.5C 25.5405,231.709 23.8738,232.209 21.5,229C 22.1667,228.667 22.8333,228.333 23.5,228C 21.2124,224.296 18.7124,221.463 16,219.5C 15.6667,217.167 15.3333,214.833 15,212.5C 14.8171,215.365 14.3171,218.031 13.5,220.5C 13.6664,212.826 13.4997,205.159 13,197.5C 12.8325,234.336 12.3325,271.002 11.5,307.5C 11.5,253.833 11.5,200.167 11.5,146.5C 12.1667,151.167 12.8333,155.833 13.5,160.5C 13.5,160.833 13.5,161.167 13.5,161.5C 13.3336,169.507 13.5003,177.507 14,185.5C 14.3333,185.167 14.6667,184.833 15,184.5C 15.0114,187.659 15.8447,190.493 17.5,193C 16.3595,193.741 16.3595,194.575 17.5,195.5C 16.8333,196.167 16.1667,196.833 15.5,197.5C 16.3148,199.276 17.4815,199.943 19,199.5C 19.9147,198.672 20.5814,197.672 21,196.5C 21.3095,197.766 21.8095,198.933 22.5,200C 21.3961,201.131 21.7295,201.965 23.5,202.5C 24.086,202.291 24.586,201.957 25,201.5C 27.5255,204.092 27.6922,206.592 25.5,209C 27.4324,209.138 29.2657,208.638 31,207.5C 32.3333,208.167 33.6667,208.833 35,209.5C 38.1226,199.413 39.2892,189.08 38.5,178.5C 38.5,170.167 38.5,161.833 38.5,153.5C 38.5,143.5 38.5,133.5 38.5,123.5C 38.5,121.833 38.5,120.167 38.5,118.5 Z"/></g>
<g><path style="opacity:1" fill="#f78015" d="M 13.5,161.5 C 14.9129,165.631 15.9129,169.964 16.5,174.5C 17.5,174.5 18.5,174.5 19.5,174.5C 19.238,173.022 19.5713,171.689 20.5,170.5C 21.6956,170.846 21.6956,171.346 20.5,172C 22.4025,172.199 23.9025,173.033 25,174.5C 25.4512,172.071 26.2845,171.904 27.5,174C 26.1669,175.84 26.3335,176.34 28,175.5C 28.3076,176.308 28.8076,176.975 29.5,177.5C 30.9574,175.725 32.1241,173.725 33,171.5C 33.5946,172.899 33.4279,174.232 32.5,175.5C 33.6113,176.611 34.278,177.945 34.5,179.5C 33.1871,181.392 33.3538,183.059 35,184.5C 35.7745,180.853 36.4412,177.186 37,173.5C 37.1981,175.382 37.6981,177.048 38.5,178.5C 39.2892,189.08 38.1226,199.413 35,209.5C 33.6667,208.833 32.3333,208.167 31,207.5C 29.2657,208.638 27.4324,209.138 25.5,209C 27.6922,206.592 27.5255,204.092 25,201.5C 24.586,201.957 24.086,202.291 23.5,202.5C 21.7295,201.965 21.3961,201.131 22.5,200C 21.8095,198.933 21.3095,197.766 21,196.5C 20.5814,197.672 19.9147,198.672 19,199.5C 17.4815,199.943 16.3148,199.276 15.5,197.5C 16.1667,196.833 16.8333,196.167 17.5,195.5C 16.3595,194.575 16.3595,193.741 17.5,193C 15.8447,190.493 15.0114,187.659 15,184.5C 14.6667,184.833 14.3333,185.167 14,185.5C 13.5003,177.507 13.3336,169.507 13.5,161.5 Z"/></g>
<g><path style="opacity:0.999" fill="#fb7918" d="M 157.5,194.5 C 156.315,195.857 155.315,197.357 154.5,199C 155.5,200.5 156.5,202 157.5,203.5C 160.493,204.904 163.493,206.071 166.5,207C 163.954,209.884 161.787,213.051 160,216.5C 155.956,220.382 151.79,224.048 147.5,227.5C 147.053,232.208 145.72,236.541 143.5,240.5C 143.167,241.167 142.833,241.833 142.5,242.5C 140.973,242.427 139.973,243.094 139.5,244.5C 137.246,245.124 135.579,246.457 134.5,248.5C 130.188,252.324 125.188,253.824 119.5,253C 114.921,251.256 111.921,248.09 110.5,243.5C 110.5,240.5 110.5,237.5 110.5,234.5C 111.581,232.236 112.915,230.069 114.5,228C 128.532,216.333 142.865,205.166 157.5,194.5 Z"/></g>
<g><path style="opacity:0.631" fill="#f69c5f" d="M 186.5,206.5 C 186.167,207.5 185.5,208.167 184.5,208.5C 184.167,208.5 183.833,208.5 183.5,208.5C 182.956,204.36 183.956,203.693 186.5,206.5 Z"/></g>
<g><path style="opacity:0.027" fill="#f5ddd9" d="M 188.5,204.5 C 188.5,205.833 187.833,206.5 186.5,206.5C 186.833,205.5 187.5,204.833 188.5,204.5 Z"/></g>
<g><path style="opacity:0.024" fill="#f9e5e0" d="M 183.5,208.5 C 183.833,208.5 184.167,208.5 184.5,208.5C 184.027,209.906 183.027,210.573 181.5,210.5C 181.833,209.5 182.5,208.833 183.5,208.5 Z"/></g>
<g><path style="opacity:0.035" fill="#f8d6cb" d="M 181.5,210.5 C 181.179,212.048 180.179,212.715 178.5,212.5C 178.973,211.094 179.973,210.427 181.5,210.5 Z"/></g>
<g><path style="opacity:0.027" fill="#f7ddd1" d="M 178.5,212.5 C 178.5,213.833 177.833,214.5 176.5,214.5C 176.833,213.5 177.5,212.833 178.5,212.5 Z"/></g>
<g><path style="opacity:0.004" fill="#f6e5e4" d="M 176.5,214.5 C 175.735,216.929 174.069,218.262 171.5,218.5C 172.585,216.413 174.251,215.08 176.5,214.5 Z"/></g>
<g><path style="opacity:0.059" fill="#efd2ce" d="M 171.5,218.5 C 170.735,220.929 169.069,222.262 166.5,222.5C 167.585,220.413 169.251,219.08 171.5,218.5 Z"/></g>
<g><path style="opacity:1" fill="#f47919" d="M 290.5,189.5 C 290.5,203.167 290.5,216.833 290.5,230.5C 289.914,243.505 288.748,256.505 287,269.5C 285.461,268.454 285.295,267.121 286.5,265.5C 285.742,258.862 285.242,252.196 285,245.5C 284.667,246.833 284.333,248.167 284,249.5C 283.282,250.451 282.449,250.617 281.5,250C 281.366,248.455 281.7,246.788 282.5,245C 281.192,242.663 280.192,240.163 279.5,237.5C 277.985,239.547 277.151,241.881 277,244.5C 275.333,242.455 273.5,240.622 271.5,239C 271.501,237.601 271.835,236.101 272.5,234.5C 270.585,231.849 269.085,232.183 268,235.5C 267.667,237.5 267.333,239.5 267,241.5C 266.667,241.167 266.333,240.833 266,240.5C 265.391,233.216 264.557,225.883 263.5,218.5C 263.5,209.5 263.5,200.5 263.5,191.5C 264.329,198.989 264.829,206.656 265,214.5C 265.249,215.624 265.749,216.624 266.5,217.5C 267.167,215.167 267.833,212.833 268.5,210.5C 271.086,211.739 273.086,213.572 274.5,216C 273.253,217.494 273.253,218.994 274.5,220.5C 275.451,219.674 276.451,219.508 277.5,220C 278.717,221.648 279.55,223.481 280,225.5C 281,224.167 282,222.833 283,221.5C 284.918,224.583 286.251,227.917 287,231.5C 287.499,227.514 287.666,223.514 287.5,219.5C 288.879,209.534 289.879,199.534 290.5,189.5 Z"/></g>
<g><path style="opacity:0.016" fill="#f1e1e2" d="M 166.5,222.5 C 166.5,223.833 165.833,224.5 164.5,224.5C 164.833,223.5 165.5,222.833 166.5,222.5 Z"/></g>
<g><path style="opacity:0.008" fill="#f7e2dd" d="M 164.5,224.5 C 163.461,226.531 161.795,227.864 159.5,228.5C 160.585,226.413 162.251,225.08 164.5,224.5 Z"/></g>
<g><path style="opacity:1" fill="#f77316" d="M 35.5,257.5 C 35.2865,259.144 35.6198,260.644 36.5,262C 35.1068,263.171 34.2735,264.671 34,266.5C 33.7938,264.61 32.9605,262.61 31.5,260.5C 30.7261,259.289 29.8928,259.289 29,260.5C 28.6827,258.699 28.016,258.366 27,259.5C 26.6466,258.328 26.8132,257.162 27.5,256C 25.3381,253.672 23.0048,251.506 20.5,249.5C 19.7647,245.53 18.098,242.03 15.5,239C 15.8333,238.667 16.1667,238.333 16.5,238C 15.7734,236.601 15.2734,235.101 15,233.5C 14.6667,234.833 14.3333,236.167 14,237.5C 13.5006,231.843 13.3339,226.176 13.5,220.5C 14.3171,218.031 14.8171,215.365 15,212.5C 15.3333,214.833 15.6667,217.167 16,219.5C 18.7124,221.463 21.2124,224.296 23.5,228C 22.8333,228.333 22.1667,228.667 21.5,229C 23.8738,232.209 25.5405,231.709 26.5,227.5C 26.8333,227.667 27.1667,227.833 27.5,228C 26.4086,230.064 26.2419,232.231 27,234.5C 27.957,232.291 29.1236,232.457 30.5,235C 30.9369,237.217 30.9369,239.551 30.5,242C 32.5514,245.681 34.218,248.848 35.5,251.5C 35.1132,253.274 34.4465,254.941 33.5,256.5C 33.9569,257.298 34.6236,257.631 35.5,257.5 Z"/></g>
<g><path style="opacity:0.012" fill="#f5dedb" d="M 159.5,228.5 C 158.461,230.531 156.795,231.864 154.5,232.5C 155.579,230.457 157.246,229.124 159.5,228.5 Z"/></g>
<g><path style="opacity:0.02" fill="#f1dbdc" d="M 154.5,232.5 C 153.735,234.929 152.069,236.262 149.5,236.5C 150.579,234.457 152.246,233.124 154.5,232.5 Z"/></g>
<g><path style="opacity:0.953" fill="#f48c44" d="M 110.5,234.5 C 110.5,237.5 110.5,240.5 110.5,243.5C 108.974,242.508 108.307,241.008 108.5,239C 108.307,236.992 108.974,235.492 110.5,234.5 Z"/></g>
<g><path style="opacity:0.016" fill="#f1d5d2" d="M 149.5,236.5 C 148.461,238.531 146.795,239.864 144.5,240.5C 145.579,238.457 147.246,237.124 149.5,236.5 Z"/></g>
<g><path style="opacity:0.012" fill="#f5e3e5" d="M 143.5,240.5 C 143.833,240.5 144.167,240.5 144.5,240.5C 144.5,241.833 143.833,242.5 142.5,242.5C 142.833,241.833 143.167,241.167 143.5,240.5 Z"/></g>
<g><path style="opacity:0.027" fill="#f2e0db" d="M 142.5,242.5 C 142.179,244.048 141.179,244.715 139.5,244.5C 139.973,243.094 140.973,242.427 142.5,242.5 Z"/></g>
<g><path style="opacity:1" fill="#f4731b" d="M 263.5,218.5 C 264.557,225.883 265.391,233.216 266,240.5C 266.333,240.833 266.667,241.167 267,241.5C 267.333,239.5 267.667,237.5 268,235.5C 269.085,232.183 270.585,231.849 272.5,234.5C 271.835,236.101 271.501,237.601 271.5,239C 273.5,240.622 275.333,242.455 277,244.5C 277.151,241.881 277.985,239.547 279.5,237.5C 280.192,240.163 281.192,242.663 282.5,245C 281.7,246.788 281.366,248.455 281.5,250C 282.449,250.617 283.282,250.451 284,249.5C 284.333,248.167 284.667,246.833 285,245.5C 285.242,252.196 285.742,258.862 286.5,265.5C 285.295,267.121 285.461,268.454 287,269.5C 288.748,256.505 289.914,243.505 290.5,230.5C 290.5,258.833 290.5,287.167 290.5,315.5C 289.833,317.167 289.167,318.833 288.5,320.5C 288.665,317.15 288.498,313.817 288,310.5C 287.667,310.833 287.333,311.167 287,311.5C 285.341,308.055 285.174,304.555 286.5,301C 285.736,295.538 285.236,290.038 285,284.5C 284.667,284.833 284.333,285.167 284,285.5C 281.785,281.891 282.118,281.225 285,283.5C 285.667,281.5 285.667,279.5 285,277.5C 284.692,278.308 284.192,278.975 283.5,279.5C 282.52,278.019 281.353,276.685 280,275.5C 280.792,272.809 280.459,270.142 279,267.5C 276.45,269.495 275.95,271.828 277.5,274.5C 275.319,274.716 273.653,273.883 272.5,272C 272.539,269.703 272.872,267.37 273.5,265C 271.44,262.988 269.94,260.821 269,258.5C 267.738,262.313 267.071,266.313 267,270.5C 265.547,264.73 264.38,258.73 263.5,252.5C 263.5,241.167 263.5,229.833 263.5,218.5 Z"/></g>
<g><path style="opacity:0.012" fill="#f1dbd4" d="M 139.5,244.5 C 138.461,246.531 136.795,247.864 134.5,248.5C 135.579,246.457 137.246,245.124 139.5,244.5 Z"/></g>
<g><path style="opacity:1" fill="#f66c19" d="M 13.5,220.5 C 13.3339,226.176 13.5006,231.843 14,237.5C 14.3333,236.167 14.6667,234.833 15,233.5C 15.2734,235.101 15.7734,236.601 16.5,238C 16.1667,238.333 15.8333,238.667 15.5,239C 18.098,242.03 19.7647,245.53 20.5,249.5C 23.0048,251.506 25.3381,253.672 27.5,256C 26.8132,257.162 26.6466,258.328 27,259.5C 28.016,258.366 28.6827,258.699 29,260.5C 29.8928,259.289 30.7261,259.289 31.5,260.5C 32.9605,262.61 33.7938,264.61 34,266.5C 34.2735,264.671 35.1068,263.171 36.5,262C 35.6198,260.644 35.2865,259.144 35.5,257.5C 37.0762,253.049 37.9095,248.382 38,243.5C 38.5,268.164 38.6666,292.831 38.5,317.5C 38.7373,318.791 38.404,319.791 37.5,320.5C 36.6591,313.535 36.3257,306.535 36.5,299.5C 35.5,299.5 34.5,299.5 33.5,299.5C 33.5,298.167 33.5,296.833 33.5,295.5C 29.9286,295.592 28.7619,293.926 30,290.5C 30.6543,291.696 31.1543,291.696 31.5,290.5C 30.8325,287.156 29.1658,284.489 26.5,282.5C 27.325,281.614 28.325,281.281 29.5,281.5C 29.33,280.178 29.6634,279.011 30.5,278C 29.9747,277.308 29.3081,276.808 28.5,276.5C 27.4782,278.855 25.8116,280.522 23.5,281.5C 22.9026,279.38 22.5692,277.213 22.5,275C 22.9054,274.055 23.572,273.388 24.5,273C 22.8934,271.951 22.2267,270.451 22.5,268.5C 20.8561,268.714 19.3561,268.38 18,267.5C 18.9734,264.122 19.4734,260.789 19.5,257.5C 17.345,256.262 15.6783,253.929 14.5,250.5C 13.3338,266.156 13.1671,281.823 14,297.5C 14.3333,291.167 14.6667,284.833 15,278.5C 15.9307,293.865 16.0973,309.198 15.5,324.5C 13.8639,323.251 12.6972,321.584 12,319.5C 11.5012,315.514 11.3345,311.514 11.5,307.5C 12.3325,271.002 12.8325,234.336 13,197.5C 13.4997,205.159 13.6664,212.826 13.5,220.5 Z"/></g>
<g><path style="opacity:1" fill="#f46d1a" d="M 263.5,252.5 C 264.38,258.73 265.547,264.73 267,270.5C 267.071,266.313 267.738,262.313 269,258.5C 269.94,260.821 271.44,262.988 273.5,265C 272.872,267.37 272.539,269.703 272.5,272C 273.653,273.883 275.319,274.716 277.5,274.5C 275.95,271.828 276.45,269.495 279,267.5C 280.459,270.142 280.792,272.809 280,275.5C 281.353,276.685 282.52,278.019 283.5,279.5C 284.192,278.975 284.692,278.308 285,277.5C 285.667,279.5 285.667,281.5 285,283.5C 282.118,281.225 281.785,281.891 284,285.5C 284.333,285.167 284.667,284.833 285,284.5C 285.236,290.038 285.736,295.538 286.5,301C 285.174,304.555 285.341,308.055 287,311.5C 287.333,311.167 287.667,310.833 288,310.5C 288.498,313.817 288.665,317.15 288.5,320.5C 288.5,321.167 288.5,321.833 288.5,322.5C 288.975,325.082 288.308,327.082 286.5,328.5C 286.09,322.592 285.757,316.926 285.5,311.5C 283.058,311.119 282.391,311.786 283.5,313.5C 282.306,316.619 280.806,316.952 279,314.5C 278.654,316.218 278.154,317.885 277.5,319.5C 281.691,322.774 281.358,323.774 276.5,322.5C 276.301,319.989 275.968,317.822 275.5,316C 276.729,314.471 278.229,313.304 280,312.5C 280.494,310.866 280.66,309.199 280.5,307.5C 279.127,307.657 277.793,307.49 276.5,307C 275.898,304.964 274.898,303.13 273.5,301.5C 274.521,298.206 273.854,295.206 271.5,292.5C 271.227,290.072 271.56,287.905 272.5,286C 271.667,285.167 270.833,284.333 270,283.5C 269.03,290.81 268.197,298.143 267.5,305.5C 266.172,298.072 264.838,290.739 263.5,283.5C 263.5,273.167 263.5,262.833 263.5,252.5 Z"/></g>
<g><path style="opacity:1" fill="#f76919" d="M 37.5,320.5 C 37.1667,321.833 36.8333,323.167 36.5,324.5C 35.5,324.833 34.8333,325.5 34.5,326.5C 34.1667,326.5 33.8333,326.5 33.5,326.5C 33.5858,325.504 33.2524,324.671 32.5,324C 35.4593,320.552 34.626,318.385 30,317.5C 29.3005,319.032 28.1338,320.032 26.5,320.5C 23.6561,318.903 21.6561,316.57 20.5,313.5C 21.1142,309.579 21.1142,305.579 20.5,301.5C 21.5255,296.848 22.5255,292.181 23.5,287.5C 23.2907,286.914 22.9574,286.414 22.5,286C 26.0642,285.273 26.3976,283.773 23.5,281.5C 25.8116,280.522 27.4782,278.855 28.5,276.5C 29.3081,276.808 29.9747,277.308 30.5,278C 29.6634,279.011 29.33,280.178 29.5,281.5C 28.325,281.281 27.325,281.614 26.5,282.5C 29.1658,284.489 30.8325,287.156 31.5,290.5C 31.1543,291.696 30.6543,291.696 30,290.5C 28.7619,293.926 29.9286,295.592 33.5,295.5C 33.5,296.833 33.5,298.167 33.5,299.5C 34.5,299.5 35.5,299.5 36.5,299.5C 36.3257,306.535 36.6591,313.535 37.5,320.5 Z"/></g>
<g><path style="opacity:1" fill="#f66a19" d="M 263.5,283.5 C 264.838,290.739 266.172,298.072 267.5,305.5C 268.197,298.143 269.03,290.81 270,283.5C 270.833,284.333 271.667,285.167 272.5,286C 271.56,287.905 271.227,290.072 271.5,292.5C 273.854,295.206 274.521,298.206 273.5,301.5C 274.898,303.13 275.898,304.964 276.5,307C 277.793,307.49 279.127,307.657 280.5,307.5C 280.66,309.199 280.494,310.866 280,312.5C 278.229,313.304 276.729,314.471 275.5,316C 275.968,317.822 276.301,319.989 276.5,322.5C 281.358,323.774 281.691,322.774 277.5,319.5C 278.154,317.885 278.654,316.218 279,314.5C 280.806,316.952 282.306,316.619 283.5,313.5C 282.391,311.786 283.058,311.119 285.5,311.5C 285.757,316.926 286.09,322.592 286.5,328.5C 286.5,329.167 286.5,329.833 286.5,330.5C 285.655,331.671 284.989,333.005 284.5,334.5C 283.343,338.018 281.677,341.351 279.5,344.5C 278.083,346.261 276.417,347.594 274.5,348.5C 274.5,347.5 274.5,346.5 274.5,345.5C 275.5,345.5 276.5,345.5 277.5,345.5C 277.421,344.07 277.754,342.736 278.5,341.5C 277.052,340.646 275.719,339.646 274.5,338.5C 273.351,340.925 272.684,340.925 272.5,338.5C 273.317,336.692 272.65,335.192 270.5,334C 271.672,333.581 272.672,332.915 273.5,332C 270.995,328.778 270.995,325.444 273.5,322C 271.969,319.187 269.969,319.021 267.5,321.5C 267.167,321.167 266.833,320.833 266.5,320.5C 267.5,319.667 268.5,318.833 269.5,318C 266.595,316.598 264.595,314.431 263.5,311.5C 263.5,302.167 263.5,292.833 263.5,283.5 Z"/></g>
<g><path style="opacity:0.256" fill="#f5f0ee" d="M 186.5,312.5 C 190.358,300.486 185.858,293.819 173,292.5C 169.496,292.652 166.329,293.818 163.5,296C 158.639,300.032 153.972,304.199 149.5,308.5C 136.185,318.809 122.852,329.143 109.5,339.5C 109.737,338.209 109.404,337.209 108.5,336.5C 126.189,320.82 144.523,305.82 163.5,291.5C 171.344,287.325 178.844,287.991 186,293.5C 186.932,295.766 188.266,297.766 190,299.5C 190.667,302.833 190.667,306.167 190,309.5C 189.241,311.063 188.074,312.063 186.5,312.5 Z"/></g>
<g><path style="opacity:1" fill="#f9691a" d="M 186.5,312.5 C 186.5,312.833 186.5,313.167 186.5,313.5C 185.167,314.167 184.167,315.167 183.5,316.5C 182.5,316.833 181.833,317.5 181.5,318.5C 179.973,318.427 178.973,319.094 178.5,320.5C 177.5,320.833 176.833,321.5 176.5,322.5C 175.778,323.551 174.778,324.218 173.5,324.5C 172.5,324.833 171.833,325.5 171.5,326.5C 170.778,327.551 169.778,328.218 168.5,328.5C 167.5,328.833 166.833,329.5 166.5,330.5C 165.833,330.833 165.167,331.167 164.5,331.5C 165.036,328.445 165.869,325.445 167,322.5C 167.974,324.878 168.641,324.544 169,321.5C 169.333,322.167 169.667,322.833 170,323.5C 169.647,317.528 171.314,316.862 175,321.5C 174.368,318.974 174.535,316.474 175.5,314C 174.833,313.667 174.167,313.333 173.5,313C 176.176,311.449 176.176,310.449 173.5,310C 169.866,313.92 166.199,316.753 162.5,318.5C 162.5,319.5 162.5,320.5 162.5,321.5C 161.448,321.351 160.448,321.517 159.5,322C 155.918,325.755 151.918,328.921 147.5,331.5C 146.065,330.904 144.398,330.904 142.5,331.5C 142.649,332.552 142.483,333.552 142,334.5C 141.667,334.167 141.333,333.833 141,333.5C 140.292,334.381 139.458,335.047 138.5,335.5C 138.389,334.883 138.056,334.383 137.5,334C 140.364,331.989 140.698,329.822 138.5,327.5C 139.193,325.258 140.193,322.925 141.5,320.5C 140.5,319.833 139.5,319.167 138.5,318.5C 140.65,316.851 142.65,315.018 144.5,313C 147.662,313.69 149.328,312.19 149.5,308.5C 153.972,304.199 158.639,300.032 163.5,296C 166.329,293.818 169.496,292.652 173,292.5C 185.858,293.819 190.358,300.486 186.5,312.5 Z"/></g>
<g><path style="opacity:0.987" fill="#f96915" d="M 23.5,281.5 C 26.3976,283.773 26.0642,285.273 22.5,286C 22.9574,286.414 23.2907,286.914 23.5,287.5C 22.5255,292.181 21.5255,296.848 20.5,301.5C 21.1142,305.579 21.1142,309.579 20.5,313.5C 21.6561,316.57 23.6561,318.903 26.5,320.5C 28.1338,320.032 29.3005,319.032 30,317.5C 34.626,318.385 35.4593,320.552 32.5,324C 33.2524,324.671 33.5858,325.504 33.5,326.5C 32.5,326.833 31.8333,327.5 31.5,328.5C 31.1667,328.5 30.8333,328.5 30.5,328.5C 25.8986,328.945 21.5653,328.278 17.5,326.5C 16.5,326.167 15.8333,325.5 15.5,324.5C 16.0973,309.198 15.9307,293.865 15,278.5C 14.6667,284.833 14.3333,291.167 14,297.5C 13.1671,281.823 13.3338,266.156 14.5,250.5C 15.6783,253.929 17.345,256.262 19.5,257.5C 19.4734,260.789 18.9734,264.122 18,267.5C 19.3561,268.38 20.8561,268.714 22.5,268.5C 22.2267,270.451 22.8934,271.951 24.5,273C 23.572,273.388 22.9054,274.055 22.5,275C 22.5692,277.213 22.9026,279.38 23.5,281.5 Z"/></g>
<g><path style="opacity:0.999" fill="#fc6816" d="M 164.5,331.5 C 163.833,331.5 163.5,331.833 163.5,332.5C 163.167,333.5 162.5,334.167 161.5,334.5C 159.973,334.427 158.973,335.094 158.5,336.5C 157.5,336.833 156.833,337.5 156.5,338.5C 154.973,338.427 153.973,339.094 153.5,340.5C 152.778,341.551 151.778,342.218 150.5,342.5C 149.5,342.833 148.833,343.5 148.5,344.5C 147.833,344.5 147.5,344.833 147.5,345.5C 146.833,345.5 146.167,345.5 145.5,345.5C 145.587,342.402 145.087,342.068 144,344.5C 141.615,343.029 140.281,341.029 140,338.5C 142.05,340.882 143.55,340.382 144.5,337C 144.355,336.228 144.022,335.561 143.5,335C 145.027,333.968 146.36,332.801 147.5,331.5C 151.918,328.921 155.918,325.755 159.5,322C 160.448,321.517 161.448,321.351 162.5,321.5C 162.5,320.5 162.5,319.5 162.5,318.5C 166.199,316.753 169.866,313.92 173.5,310C 176.176,310.449 176.176,311.449 173.5,313C 174.167,313.333 174.833,313.667 175.5,314C 174.535,316.474 174.368,318.974 175,321.5C 171.314,316.862 169.647,317.528 170,323.5C 169.667,322.833 169.333,322.167 169,321.5C 168.641,324.544 167.974,324.878 167,322.5C 165.869,325.445 165.036,328.445 164.5,331.5 Z"/></g>
<g><path style="opacity:0.024" fill="#f2d2ca" d="M 186.5,313.5 C 186.5,314.5 186.5,315.5 186.5,316.5C 185.5,316.5 184.5,316.5 183.5,316.5C 184.167,315.167 185.167,314.167 186.5,313.5 Z"/></g>
<g><path style="opacity:0.004" fill="#f0d2ce" d="M 183.5,316.5 C 183.5,317.833 182.833,318.5 181.5,318.5C 181.833,317.5 182.5,316.833 183.5,316.5 Z"/></g>
<g><path style="opacity:0.035" fill="#eec5ba" d="M 290.5,315.5 C 291.01,318.388 290.344,320.721 288.5,322.5C 288.5,321.833 288.5,321.167 288.5,320.5C 289.167,318.833 289.833,317.167 290.5,315.5 Z"/></g>
<g><path style="opacity:0.024" fill="#ecc3bd" d="M 181.5,318.5 C 181.027,319.906 180.027,320.573 178.5,320.5C 178.973,319.094 179.973,318.427 181.5,318.5 Z"/></g>
<g><path style="opacity:0.008" fill="#efdcd8" d="M 178.5,320.5 C 178.5,321.833 177.833,322.5 176.5,322.5C 176.833,321.5 177.5,320.833 178.5,320.5 Z"/></g>
<g><path style="opacity:0.035" fill="#e9dcdd" d="M 36.5,324.5 C 36.5,325.833 35.8333,326.5 34.5,326.5C 34.8333,325.5 35.5,324.833 36.5,324.5 Z"/></g>
<g><path style="opacity:0.004" fill="#efd7d5" d="M 173.5,324.5 C 173.5,325.833 172.833,326.5 171.5,326.5C 171.833,325.5 172.5,324.833 173.5,324.5 Z"/></g>
<g><path style="opacity:0.067" fill="#ebccc5" d="M 33.5,326.5 C 33.8333,326.5 34.1667,326.5 34.5,326.5C 34.1788,328.048 33.1788,328.715 31.5,328.5C 31.8333,327.5 32.5,326.833 33.5,326.5 Z"/></g>
<g><path style="opacity:0.173" fill="#ef956f" d="M 17.5,326.5 C 21.5653,328.278 25.8986,328.945 30.5,328.5C 27.0381,329.482 23.3714,329.815 19.5,329.5C 19.5,328.833 19.1667,328.5 18.5,328.5C 18.1667,327.833 17.8333,327.167 17.5,326.5 Z"/></g>
<g><path style="opacity:1" fill="#f5661a" d="M 263.5,311.5 C 264.595,314.431 266.595,316.598 269.5,318C 268.5,318.833 267.5,319.667 266.5,320.5C 266.833,320.833 267.167,321.167 267.5,321.5C 269.969,319.021 271.969,319.187 273.5,322C 270.995,325.444 270.995,328.778 273.5,332C 272.672,332.915 271.672,333.581 270.5,334C 272.65,335.192 273.317,336.692 272.5,338.5C 269.754,342.474 266.588,346.141 263,349.5C 261.251,348.701 259.918,349.368 259,351.5C 258.667,351.167 258.333,350.833 258,350.5C 255.932,352.562 253.432,353.728 250.5,354C 251.15,355.609 250.65,357.109 249,358.5C 248.333,357.833 247.667,357.167 247,356.5C 244.381,357.624 242.215,359.29 240.5,361.5C 239.5,361 238.5,360.5 237.5,360C 239.167,359 240.5,357.667 241.5,356C 240.66,354.334 241.16,354.167 243,355.5C 243.617,354.551 243.451,353.718 242.5,353C 244.863,352.411 245.863,350.911 245.5,348.5C 243.201,347.862 241.034,346.862 239,345.5C 235.164,350.033 232.331,354.7 230.5,359.5C 229.691,357.708 229.191,355.708 229,353.5C 228.329,354.252 227.496,354.586 226.5,354.5C 236.769,346.073 246.936,337.406 257,328.5C 259.934,323.531 261.767,318.198 262.5,312.5C 263.167,312.5 263.5,312.167 263.5,311.5 Z"/></g>
<g><path style="opacity:0.055" fill="#f9e7e3" d="M 30.5,328.5 C 30.8333,328.5 31.1667,328.5 31.5,328.5C 29.9522,329.794 27.9522,330.461 25.5,330.5C 23.3035,330.495 21.3035,330.162 19.5,329.5C 23.3714,329.815 27.0381,329.482 30.5,328.5 Z"/></g>
<g><path style="opacity:0.004" fill="#f2d5d3" d="M 168.5,328.5 C 168.5,329.833 167.833,330.5 166.5,330.5C 166.833,329.5 167.5,328.833 168.5,328.5 Z"/></g>
<g><path style="opacity:1" fill="#f7621b" d="M 149.5,308.5 C 149.328,312.19 147.662,313.69 144.5,313C 142.65,315.018 140.65,316.851 138.5,318.5C 139.5,319.167 140.5,319.833 141.5,320.5C 140.193,322.925 139.193,325.258 138.5,327.5C 140.698,329.822 140.364,331.989 137.5,334C 138.056,334.383 138.389,334.883 138.5,335.5C 137.327,338.067 136.161,340.733 135,343.5C 132.931,344.264 130.764,344.764 128.5,345C 128.018,346.008 127.852,347.175 128,348.5C 126.442,347.655 125.442,348.321 125,350.5C 124.586,350.043 124.086,349.709 123.5,349.5C 122.678,351.139 122.011,352.805 121.5,354.5C 120.518,353.859 119.518,353.193 118.5,352.5C 118.06,353.698 117.727,354.865 117.5,356C 114.865,356.72 112.198,357.387 109.5,358C 110.672,358.419 111.672,359.085 112.5,360C 109.851,360.452 107.351,361.286 105,362.5C 103.251,361.701 101.918,362.368 101,364.5C 100.355,363.354 99.5217,362.354 98.5,361.5C 99.6507,360.269 100.817,360.269 102,361.5C 102.311,360.258 101.811,359.258 100.5,358.5C 101.277,356.461 102.443,355.795 104,356.5C 104.974,354.122 105.641,354.456 106,357.5C 106.833,356 108,354.833 109.5,354C 108.72,352.927 108.887,351.76 110,350.5C 114.708,347.891 117.208,343.891 117.5,338.5C 116.178,338.67 115.011,338.337 114,337.5C 112.516,339.934 110.349,341.267 107.5,341.5C 107.833,340.5 108.5,339.833 109.5,339.5C 122.852,329.143 136.185,318.809 149.5,308.5 Z"/></g>
<g><path style="opacity:0.004" fill="#f3e0dd" d="M 166.5,330.5 C 166.179,332.048 165.179,332.715 163.5,332.5C 163.5,331.833 163.833,331.5 164.5,331.5C 165.167,331.167 165.833,330.833 166.5,330.5 Z"/></g>
<g><path style="opacity:0.004" fill="#f2cdc4" d="M 286.5,330.5 C 286.843,332.483 286.176,333.817 284.5,334.5C 284.989,333.005 285.655,331.671 286.5,330.5 Z"/></g>
<g><path style="opacity:0.031" fill="#eeccca" d="M 161.5,334.5 C 161.179,336.048 160.179,336.715 158.5,336.5C 158.973,335.094 159.973,334.427 161.5,334.5 Z"/></g>
<g><path style="opacity:0.237" fill="#f7f0ef" d="M 108.5,336.5 C 109.404,337.209 109.737,338.209 109.5,339.5C 108.5,339.833 107.833,340.5 107.5,341.5C 98.5304,348.658 89.5304,355.825 80.5,363C 73.4684,367.565 66.4684,367.565 59.5,363C 56.5469,358.208 52.5469,354.708 47.5,352.5C 46.6879,351.007 45.3545,350.34 43.5,350.5C 42.2739,350.52 41.2739,350.853 40.5,351.5C 35.3373,352.662 31.6706,355.662 29.5,360.5C 28.3592,363.64 28.1925,366.973 29,370.5C 32.3362,374.668 35.8362,378.668 39.5,382.5C 34.6471,379.826 30.4805,376.16 27,371.5C 23.7988,357.885 28.9654,349.552 42.5,346.5C 50.6454,348.081 56.9788,352.414 61.5,359.5C 64.4006,360.313 67.234,361.313 70,362.5C 82.4654,356.731 93.632,348.897 103.5,339C 105.078,337.906 106.745,337.072 108.5,336.5 Z"/></g>
<g><path style="opacity:0.008" fill="#ecd8d7" d="M 158.5,336.5 C 158.5,337.833 157.833,338.5 156.5,338.5C 156.833,337.5 157.5,336.833 158.5,336.5 Z"/></g>
<g><path style="opacity:0.031" fill="#e8c6c0" d="M 156.5,338.5 C 156.027,339.906 155.027,340.573 153.5,340.5C 153.973,339.094 154.973,338.427 156.5,338.5 Z"/></g>
<g><path style="opacity:0.024" fill="#e7c0b4" d="M 150.5,342.5 C 150.5,343.833 149.833,344.5 148.5,344.5C 148.833,343.5 149.5,342.833 150.5,342.5 Z"/></g>
<g><path style="opacity:0.888" fill="#f87634" d="M 145.5,345.5 C 146.167,345.5 146.833,345.5 147.5,345.5C 147.5,346.167 147.167,346.5 146.5,346.5C 145.29,346.932 144.29,347.599 143.5,348.5C 142.833,349.167 142.167,349.833 141.5,350.5C 139.973,350.427 138.973,351.094 138.5,352.5C 138.167,353.5 137.5,354.167 136.5,354.5C 134.973,354.427 133.973,355.094 133.5,356.5C 131.405,358.785 129.072,360.785 126.5,362.5C 124.973,362.427 123.973,363.094 123.5,364.5C 122.833,365.167 122.167,365.833 121.5,366.5C 121.343,365.127 121.51,363.793 122,362.5C 124.758,360.539 127.591,358.705 130.5,357C 130.167,356.667 129.833,356.333 129.5,356C 131.974,354.132 134.307,352.132 136.5,350C 134.744,349.798 133.078,349.298 131.5,348.5C 131.667,348.167 131.833,347.833 132,347.5C 133.946,347.588 135.946,347.921 138,348.5C 140.22,346.807 142.72,345.807 145.5,345.5 Z"/></g>
<g><path style="opacity:0.004" fill="#f6e5e4" d="M 146.5,346.5 C 146.179,348.048 145.179,348.715 143.5,348.5C 144.29,347.599 145.29,346.932 146.5,346.5 Z"/></g>
<g><path style="opacity:0.416" fill="#f57e3f" d="M 274.5,348.5 C 274.657,351.344 273.324,353.011 270.5,353.5C 270.197,350.412 271.53,348.746 274.5,348.5 Z"/></g>
<g><path style="opacity:0.918" fill="#dea699" d="M 40.5,351.5 C 41.2739,350.853 42.2739,350.52 43.5,350.5C 45.3545,350.34 46.6879,351.007 47.5,352.5C 45.2362,351.781 42.9029,351.448 40.5,351.5 Z"/></g>
<g><path style="opacity:0.027" fill="#f2d4d3" d="M 141.5,350.5 C 141.179,352.048 140.179,352.715 138.5,352.5C 138.973,351.094 139.973,350.427 141.5,350.5 Z"/></g>
<g><path style="opacity:1" fill="#fb5f1a" d="M 121.5,354.5 C 121.435,354.938 121.601,355.272 122,355.5C 123.599,353.964 125.433,353.464 127.5,354C 121.993,356.613 116.826,359.78 112,363.5C 110.667,363.5 109.333,363.5 108,363.5C 105.712,366.159 103.378,368.826 101,371.5C 99.9505,370.483 98.7839,370.316 97.5,371C 97.5,372 97.5,373 97.5,374C 96.1667,374.333 94.8333,374.667 93.5,375C 93.8333,375.333 94.1667,375.667 94.5,376C 90.6207,378.654 86.954,380.987 83.5,383C 84.1667,383.667 84.8333,384.333 85.5,385C 80.4811,384.321 75.3144,385.154 70,387.5C 68.4667,387.056 66.9667,386.723 65.5,386.5C 63.8614,389.303 61.6947,388.969 59,385.5C 57.3605,386.125 55.5271,386.125 53.5,385.5C 54.6016,383.908 53.935,383.075 51.5,383C 53.9969,382.588 55.9969,381.422 57.5,379.5C 56.3966,379.002 55.3966,378.669 54.5,378.5C 56.4011,377.065 56.7345,375.398 55.5,373.5C 54,372.5 52.5,371.5 51,370.5C 49.5,371 48,371.5 46.5,372C 47.6719,373.868 47.5053,375.702 46,377.5C 43.5148,376.013 41.3482,374.179 39.5,372C 38.552,371.517 37.552,371.351 36.5,371.5C 36.6427,369.738 36.3094,368.071 35.5,366.5C 37.2592,365.246 38.7592,365.579 40,367.5C 40.5,367 41,366.5 41.5,366C 40.5,364.333 39.1667,363 37.5,362C 39.5153,359.583 41.5153,357.916 43.5,357C 41.8988,356.727 40.3988,356.227 39,355.5C 36.1698,357.831 33.0031,359.498 29.5,360.5C 31.6706,355.662 35.3373,352.662 40.5,351.5C 42.9029,351.448 45.2362,351.781 47.5,352.5C 52.5469,354.708 56.5469,358.208 59.5,363C 66.4684,367.565 73.4684,367.565 80.5,363C 89.5304,355.825 98.5304,348.658 107.5,341.5C 110.349,341.267 112.516,339.934 114,337.5C 115.011,338.337 116.178,338.67 117.5,338.5C 117.208,343.891 114.708,347.891 110,350.5C 108.887,351.76 108.72,352.927 109.5,354C 108,354.833 106.833,356 106,357.5C 105.641,354.456 104.974,354.122 104,356.5C 102.443,355.795 101.277,356.461 100.5,358.5C 101.811,359.258 102.311,360.258 102,361.5C 100.817,360.269 99.6507,360.269 98.5,361.5C 99.5217,362.354 100.355,363.354 101,364.5C 101.918,362.368 103.251,361.701 105,362.5C 107.351,361.286 109.851,360.452 112.5,360C 111.672,359.085 110.672,358.419 109.5,358C 112.198,357.387 114.865,356.72 117.5,356C 117.727,354.865 118.06,353.698 118.5,352.5C 119.518,353.193 120.518,353.859 121.5,354.5 Z"/></g>
<g><path style="opacity:0.02" fill="#ecc9c6" d="M 136.5,354.5 C 136.027,355.906 135.027,356.573 133.5,356.5C 133.973,355.094 134.973,354.427 136.5,354.5 Z"/></g>
<g><path style="opacity:1" fill="#fb6616" d="M 272.5,338.5 C 272.684,340.925 273.351,340.925 274.5,338.5C 275.719,339.646 277.052,340.646 278.5,341.5C 277.754,342.736 277.421,344.07 277.5,345.5C 276.5,345.5 275.5,345.5 274.5,345.5C 274.5,346.5 274.5,347.5 274.5,348.5C 271.53,348.746 270.197,350.412 270.5,353.5C 269.661,355.384 268.328,356.717 266.5,357.5C 263.657,357.942 260.991,358.942 258.5,360.5C 257.571,361.689 257.238,363.022 257.5,364.5C 257.167,364.5 256.833,364.5 256.5,364.5C 255.5,364.5 254.5,364.5 253.5,364.5C 253.5,365.5 253.5,366.5 253.5,367.5C 252.127,367.343 250.793,367.51 249.5,368C 249.833,368.333 250.167,368.667 250.5,369C 246.006,369.663 243.339,372.163 242.5,376.5C 242.5,377.167 242.167,377.5 241.5,377.5C 238.143,377.23 235.809,377.896 234.5,379.5C 234.5,380.5 234.5,381.5 234.5,382.5C 234.167,382.5 233.833,382.5 233.5,382.5C 232.883,382.389 232.383,382.056 232,381.5C 227.788,383.862 224.955,387.195 223.5,391.5C 222.791,392.404 221.791,392.737 220.5,392.5C 217.281,392.906 214.281,392.906 211.5,392.5C 212.593,390.272 213.593,387.939 214.5,385.5C 216.115,384.846 217.782,384.346 219.5,384C 220.5,382.333 221.833,381 223.5,380C 228.55,376.721 233.717,373.554 239,370.5C 239.333,370.833 239.667,371.167 240,371.5C 238.759,370.001 238.259,368.335 238.5,366.5C 236.165,366.712 233.665,367.379 231,368.5C 230.333,367.833 230.333,367.167 231,366.5C 232.399,365.773 233.899,365.273 235.5,365C 234.833,364.667 234.167,364.333 233.5,364C 234.672,363.581 235.672,362.915 236.5,362C 234.713,360.681 232.713,359.848 230.5,359.5C 232.331,354.7 235.164,350.033 239,345.5C 241.034,346.862 243.201,347.862 245.5,348.5C 245.863,350.911 244.863,352.411 242.5,353C 243.451,353.718 243.617,354.551 243,355.5C 241.16,354.167 240.66,354.334 241.5,356C 240.5,357.667 239.167,359 237.5,360C 238.5,360.5 239.5,361 240.5,361.5C 242.215,359.29 244.381,357.624 247,356.5C 247.667,357.167 248.333,357.833 249,358.5C 250.65,357.109 251.15,355.609 250.5,354C 253.432,353.728 255.932,352.562 258,350.5C 258.333,350.833 258.667,351.167 259,351.5C 259.918,349.368 261.251,348.701 263,349.5C 266.588,346.141 269.754,342.474 272.5,338.5 Z"/></g>
<g><path style="opacity:0.987" fill="#fc651f" d="M 147.5,331.5 C 146.36,332.801 145.027,333.968 143.5,335C 144.022,335.561 144.355,336.228 144.5,337C 143.55,340.382 142.05,340.882 140,338.5C 140.281,341.029 141.615,343.029 144,344.5C 145.087,342.068 145.587,342.402 145.5,345.5C 142.72,345.807 140.22,346.807 138,348.5C 135.946,347.921 133.946,347.588 132,347.5C 131.833,347.833 131.667,348.167 131.5,348.5C 133.078,349.298 134.744,349.798 136.5,350C 134.307,352.132 131.974,354.132 129.5,356C 129.833,356.333 130.167,356.667 130.5,357C 127.591,358.705 124.758,360.539 122,362.5C 121.51,363.793 121.343,365.127 121.5,366.5C 120.778,367.551 119.778,368.218 118.5,368.5C 117.5,368.833 116.833,369.5 116.5,370.5C 114.122,372.878 111.455,374.878 108.5,376.5C 107.5,376.833 106.833,377.5 106.5,378.5C 105.778,379.551 104.778,380.218 103.5,380.5C 102.29,380.932 101.29,381.599 100.5,382.5C 100.5,383.167 100.167,383.5 99.5,383.5C 97.5956,383.738 96.2623,384.738 95.5,386.5C 95.1667,386.5 94.8333,386.5 94.5,386.5C 93.2905,386.932 92.2905,387.599 91.5,388.5C 90.2905,388.932 89.2905,389.599 88.5,390.5C 85.6534,391.893 82.6534,392.893 79.5,393.5C 72.8198,393.388 66.1531,393.054 59.5,392.5C 56.7892,392.815 54.4559,392.148 52.5,390.5C 51.3285,389.655 49.9952,388.989 48.5,388.5C 47.8333,387.833 47.1667,387.167 46.5,386.5C 48.7659,386.859 50.5993,386.192 52,384.5C 52.3826,385.056 52.8826,385.389 53.5,385.5C 55.5271,386.125 57.3605,386.125 59,385.5C 61.6947,388.969 63.8614,389.303 65.5,386.5C 66.9667,386.723 68.4667,387.056 70,387.5C 75.3144,385.154 80.4811,384.321 85.5,385C 84.8333,384.333 84.1667,383.667 83.5,383C 86.954,380.987 90.6207,378.654 94.5,376C 94.1667,375.667 93.8333,375.333 93.5,375C 94.8333,374.667 96.1667,374.333 97.5,374C 97.5,373 97.5,372 97.5,371C 98.7839,370.316 99.9505,370.483 101,371.5C 103.378,368.826 105.712,366.159 108,363.5C 109.333,363.5 110.667,363.5 112,363.5C 116.826,359.78 121.993,356.613 127.5,354C 125.433,353.464 123.599,353.964 122,355.5C 121.601,355.272 121.435,354.938 121.5,354.5C 122.011,352.805 122.678,351.139 123.5,349.5C 124.086,349.709 124.586,350.043 125,350.5C 125.442,348.321 126.442,347.655 128,348.5C 127.852,347.175 128.018,346.008 128.5,345C 130.764,344.764 132.931,344.264 135,343.5C 136.161,340.733 137.327,338.067 138.5,335.5C 139.458,335.047 140.292,334.381 141,333.5C 141.333,333.833 141.667,334.167 142,334.5C 142.483,333.552 142.649,332.552 142.5,331.5C 144.398,330.904 146.065,330.904 147.5,331.5 Z"/></g>
<g><path style="opacity:0.263" fill="#f58040" d="M 266.5,357.5 C 263.577,360.001 260.577,362.334 257.5,364.5C 257.238,363.022 257.571,361.689 258.5,360.5C 260.991,358.942 263.657,357.942 266.5,357.5 Z"/></g>
<g><path style="opacity:0.999" fill="#fa5d18" d="M 53.5,385.5 C 52.8826,385.389 52.3826,385.056 52,384.5C 50.5993,386.192 48.7659,386.859 46.5,386.5C 46.1667,386.5 45.8333,386.5 45.5,386.5C 45.1667,386.5 44.8333,386.5 44.5,386.5C 44.1667,385.5 43.5,384.833 42.5,384.5C 41.7095,383.599 40.7095,382.932 39.5,382.5C 35.8362,378.668 32.3362,374.668 29,370.5C 28.1925,366.973 28.3592,363.64 29.5,360.5C 33.0031,359.498 36.1698,357.831 39,355.5C 40.3988,356.227 41.8988,356.727 43.5,357C 41.5153,357.916 39.5153,359.583 37.5,362C 39.1667,363 40.5,364.333 41.5,366C 41,366.5 40.5,367 40,367.5C 38.7592,365.579 37.2592,365.246 35.5,366.5C 36.3094,368.071 36.6427,369.738 36.5,371.5C 37.552,371.351 38.552,371.517 39.5,372C 41.3482,374.179 43.5148,376.013 46,377.5C 47.5053,375.702 47.6719,373.868 46.5,372C 48,371.5 49.5,371 51,370.5C 52.5,371.5 54,372.5 55.5,373.5C 56.7345,375.398 56.4011,377.065 54.5,378.5C 55.3966,378.669 56.3966,379.002 57.5,379.5C 55.9969,381.422 53.9969,382.588 51.5,383C 53.935,383.075 54.6016,383.908 53.5,385.5 Z"/></g>
<g><path style="opacity:0.016" fill="#efcec8" d="M 126.5,362.5 C 126.027,363.906 125.027,364.573 123.5,364.5C 123.973,363.094 124.973,362.427 126.5,362.5 Z"/></g>
<g><path style="opacity:1" fill="#f86015" d="M 230.5,359.5 C 232.713,359.848 234.713,360.681 236.5,362C 235.672,362.915 234.672,363.581 233.5,364C 234.167,364.333 234.833,364.667 235.5,365C 233.899,365.273 232.399,365.773 231,366.5C 230.333,367.167 230.333,367.833 231,368.5C 233.665,367.379 236.165,366.712 238.5,366.5C 238.259,368.335 238.759,370.001 240,371.5C 239.667,371.167 239.333,370.833 239,370.5C 233.717,373.554 228.55,376.721 223.5,380C 221.833,381 220.5,382.333 219.5,384C 217.782,384.346 216.115,384.846 214.5,385.5C 213.593,387.939 212.593,390.272 211.5,392.5C 210.167,392.5 208.833,392.5 207.5,392.5C 207.167,392.5 206.833,392.5 206.5,392.5C 204.937,391.055 203.604,389.389 202.5,387.5C 202.573,385.973 201.906,384.973 200.5,384.5C 200.163,380.692 200.663,377.026 202,373.5C 209.775,366.545 217.942,360.212 226.5,354.5C 227.496,354.586 228.329,354.252 229,353.5C 229.191,355.708 229.691,357.708 230.5,359.5 Z"/></g>
<g><path style="opacity:0.008" fill="#f0dedc" d="M 118.5,368.5 C 118.5,369.833 117.833,370.5 116.5,370.5C 116.833,369.5 117.5,368.833 118.5,368.5 Z"/></g>
<g><path style="opacity:0.441" fill="#f57833" d="M 256.5,364.5 C 255.594,366.417 254.261,368.083 252.5,369.5C 248.878,371.461 245.545,373.794 242.5,376.5C 243.339,372.163 246.006,369.663 250.5,369C 250.167,368.667 249.833,368.333 249.5,368C 250.793,367.51 252.127,367.343 253.5,367.5C 253.5,366.5 253.5,365.5 253.5,364.5C 254.5,364.5 255.5,364.5 256.5,364.5 Z"/></g>
<g><path style="opacity:0.004" fill="#f4e0e0" d="M 108.5,376.5 C 108.5,377.833 107.833,378.5 106.5,378.5C 106.833,377.5 107.5,376.833 108.5,376.5 Z"/></g>
<g><path style="opacity:0.345" fill="#ee783d" d="M 241.5,377.5 C 239.351,379.409 237.018,381.076 234.5,382.5C 234.5,381.5 234.5,380.5 234.5,379.5C 235.809,377.896 238.143,377.23 241.5,377.5 Z"/></g>
<g><path style="opacity:0.008" fill="#f2dada" d="M 103.5,380.5 C 103.179,382.048 102.179,382.715 100.5,382.5C 101.29,381.599 102.29,380.932 103.5,380.5 Z"/></g>
<g><path style="opacity:0.008" fill="#f0e0de" d="M 39.5,382.5 C 40.7095,382.932 41.7095,383.599 42.5,384.5C 40.8212,384.715 39.8212,384.048 39.5,382.5 Z"/></g>
<g><path style="opacity:0.004" fill="#e9c6c7" d="M 99.5,383.5 C 98.7377,385.262 97.4044,386.262 95.5,386.5C 96.2623,384.738 97.5956,383.738 99.5,383.5 Z"/></g>
<g><path style="opacity:0.49" fill="#f67b38" d="M 233.5,382.5 C 233.489,384.017 232.823,385.184 231.5,386C 228.684,387.655 226.017,389.488 223.5,391.5C 224.955,387.195 227.788,383.862 232,381.5C 232.383,382.056 232.883,382.389 233.5,382.5 Z"/></g>
<g><path style="opacity:0.024" fill="#e8e2e2" d="M 42.5,384.5 C 43.5,384.833 44.1667,385.5 44.5,386.5C 43.1667,386.5 42.5,385.833 42.5,384.5 Z"/></g>
<g><path style="opacity:0.769" fill="#d18269" d="M 200.5,384.5 C 201.906,384.973 202.573,385.973 202.5,387.5C 201.094,387.027 200.427,386.027 200.5,384.5 Z"/></g>
<g><path style="opacity:0.012" fill="#e8d8d7" d="M 45.5,386.5 C 45.8333,386.5 46.1667,386.5 46.5,386.5C 47.1667,387.167 47.8333,387.833 48.5,388.5C 46.8212,388.715 45.8212,388.048 45.5,386.5 Z"/></g>
<g><path style="opacity:0.008" fill="#e6c7c2" d="M 94.5,386.5 C 94.1788,388.048 93.1788,388.715 91.5,388.5C 92.2905,387.599 93.2905,386.932 94.5,386.5 Z"/></g>
<g><path style="opacity:0.004" fill="#f0e6e6" d="M 48.5,388.5 C 49.9952,388.989 51.3285,389.655 52.5,390.5C 50.5168,390.843 49.1834,390.176 48.5,388.5 Z"/></g>
<g><path style="opacity:0.008" fill="#f2dbdb" d="M 91.5,388.5 C 91.1788,390.048 90.1788,390.715 88.5,390.5C 89.2905,389.599 90.2905,388.932 91.5,388.5 Z"/></g>
<g><path style="opacity:0.412" fill="#eb783d" d="M 207.5,392.5 C 208.833,392.5 210.167,392.5 211.5,392.5C 214.281,392.906 217.281,392.906 220.5,392.5C 220.389,393.117 220.056,393.617 219.5,394C 216.518,394.498 213.518,394.665 210.5,394.5C 209.5,393.833 208.5,393.167 207.5,392.5 Z"/></g>
<g><path style="opacity:0.11" fill="#f19772" d="M 59.5,392.5 C 66.1531,393.054 72.8198,393.388 79.5,393.5C 73.3471,394.653 67.0137,394.82 60.5,394C 59.944,393.617 59.6107,393.117 59.5,392.5 Z"/></g>
<g><path style="opacity:0.012" fill="#efecec" d="M 206.5,392.5 C 206.833,392.5 207.167,392.5 207.5,392.5C 208.5,393.167 209.5,393.833 210.5,394.5C 208.517,394.843 207.183,394.176 206.5,392.5 Z"/></g>
</svg>
