<svg width="143" height="44" viewBox="0 0 143 44" fill="none" xmlns="http://www.w3.org/2000/svg">
<path d="M43.9999 11.7665V32.1292C43.9999 35.2499 42.7603 38.2427 40.5536 40.4494C38.347 42.656 35.3541 43.8957 32.2335 43.8957H17.3516C17.1245 43.8955 16.9055 43.8113 16.7367 43.6594C16.5679 43.5075 16.4612 43.2985 16.4371 43.0727L16.3762 42.3106C16.0547 38.4559 14.3557 34.8459 11.5903 32.1414C8.86996 29.4055 5.25126 27.7467 1.40289 27.4714H1.0249C0.902448 27.4714 0.781226 27.447 0.668326 27.3996C0.555426 27.3522 0.453117 27.2828 0.367389 27.1954C0.281661 27.1079 0.214237 27.0043 0.169063 26.8905C0.12389 26.7766 0.101875 26.655 0.104308 26.5325V11.7665C0.100704 9.33155 0.85498 6.95579 2.26251 4.96881C2.1597 5.60228 2.19086 6.25027 2.35396 6.87096C2.78425 9.03448 3.91046 10.9979 5.56078 12.4616C5.66442 12.6384 5.75587 12.803 5.82293 12.9493C5.98574 13.318 6.17102 13.6763 6.37772 14.0223C4.97406 15.7429 4.21314 17.8984 4.22562 20.1189C4.20651 21.8858 4.68381 23.6225 5.60319 25.1315C6.52257 26.6404 7.8471 27.861 9.42603 28.6542C9.86362 28.8686 10.3184 29.046 10.7856 29.1846C11.6028 29.4275 12.4509 29.5507 13.3035 29.5504C14.6524 29.547 15.9832 29.2386 17.1962 28.6485C18.4093 28.0583 19.4732 27.2016 20.3085 26.1424C20.5341 26.8252 20.7535 27.5751 20.9669 28.4103L21.0401 28.7029V28.7334C21.0864 29.4197 21.1904 30.1009 21.351 30.7697C21.4973 31.3306 21.6985 31.7208 21.9607 31.7695C22.2411 31.7208 22.4423 31.3306 22.5703 30.7697C22.6945 30.2645 22.7821 29.7511 22.8325 29.2333C22.9422 28.7761 23.0459 28.3432 23.1556 27.9348C23.3324 27.2885 23.5092 26.7154 23.686 26.1546C24.5332 27.2161 25.6107 28.0713 26.8369 28.6553C28.0631 29.2394 29.406 29.5371 30.7642 29.526C32.3641 29.5276 33.9343 29.0934 35.3062 28.2701C36.7054 27.4213 37.8605 26.224 38.6587 24.7954C39.4569 23.3667 39.8709 21.7554 39.8603 20.1189C39.8713 17.8987 39.1105 15.7436 37.7082 14.0223C37.9196 13.6758 38.107 13.3153 38.2691 12.9432C38.3758 12.7337 38.4939 12.5302 38.6227 12.3335C39.138 11.8571 39.6019 11.3278 40.0066 10.7545C40.8022 9.59026 41.3615 8.28115 41.6527 6.90144C41.8416 6.22023 41.8708 5.50464 41.7381 4.8103C43.2142 6.82869 44.0067 9.26598 43.9999 11.7665Z" fill="url(#paint0_linear_23_24)"/>
<path d="M40.592 3.94452C40.592 3.94452 41.1651 7.27937 36.2634 9.26077C35.0747 9.69794 33.8452 10.0145 32.5932 10.2057C32.3189 10.2423 31.9836 10.2972 31.5568 10.3886C31.13 10.4801 30.7703 10.5776 30.3375 10.7118C28.1488 11.3763 25.2468 12.7968 23.5824 15.7781C23.3443 16.2211 23.1405 16.6817 22.9728 17.1559C22.7087 17.8573 22.5426 18.5917 22.4789 19.3385C22.4119 19.814 22.3448 20.381 22.2899 21.0577C22.2975 21.0883 22.298 21.1201 22.2915 21.1509C22.2849 21.1817 22.2714 21.2106 22.252 21.2353C22.2326 21.2601 22.2078 21.2802 22.1796 21.294C22.1513 21.3077 22.1202 21.3149 22.0887 21.3149C22.0573 21.3149 22.0262 21.3077 21.9979 21.294C21.9697 21.2802 21.9449 21.2601 21.9255 21.2353C21.9061 21.2106 21.8926 21.1817 21.886 21.1509C21.8795 21.1201 21.88 21.0883 21.8876 21.0577C21.8449 20.5395 21.7961 20.0884 21.7473 19.686C21.6986 19.2836 21.6498 18.9727 21.601 18.6922C21.5218 18.2594 21.4486 17.9424 21.3876 17.7046C21.3423 17.5168 21.2811 17.3333 21.2047 17.1559C20.8566 16.2043 20.3608 15.3134 19.7355 14.5161C18.1566 12.6602 16.0487 11.3308 13.6937 10.7057C13.2487 10.5715 12.8341 10.4679 12.4744 10.3886C12.1147 10.3094 11.7123 10.2423 11.438 10.2057C10.1757 10.0165 8.93579 9.69992 7.73732 9.26077C2.86003 7.27937 3.40872 3.94452 3.40872 3.94452C3.40122 3.86017 3.37408 3.77874 3.32947 3.70675C4.42451 2.53992 5.74648 1.60922 7.21424 0.971795C8.68199 0.334371 10.2645 0.00367502 11.8647 1.16626e-05H32.2274C33.824 -0.00223791 35.4043 0.32097 36.8718 0.949898C38.3393 1.57883 39.6632 2.50028 40.7627 3.65798C40.6768 3.73293 40.617 3.8333 40.592 3.94452Z" fill="url(#paint1_linear_23_24)"/>
<path d="M2.71978 41.146C2.57241 40.9976 2.3965 40.8805 2.20265 40.8019C2.0088 40.7233 1.80104 40.6848 1.59191 40.6888C1.38157 40.6826 1.17223 40.72 0.977065 40.7987C0.781903 40.8774 0.60515 40.9956 0.45794 41.146C0.309324 41.2945 0.192221 41.4715 0.113651 41.6664C0.0350808 41.8612 -0.00333908 42.0699 0.000693967 42.28C-0.00428903 42.4893 0.0337192 42.6973 0.112368 42.8913C0.191016 43.0853 0.308632 43.2611 0.45794 43.4078C0.605507 43.5648 0.784207 43.6893 0.982616 43.7733C1.18102 43.8573 1.39478 43.8989 1.6102 43.8956C1.81927 43.8989 2.02687 43.8601 2.22067 43.7816C2.41448 43.7031 2.59053 43.5865 2.73839 43.4386C2.88624 43.2908 3.00287 43.1147 3.08137 42.9209C3.15986 42.7271 3.19861 42.5195 3.19532 42.3105C3.20348 42.0937 3.16528 41.8777 3.08327 41.6769C3.00127 41.4761 2.87734 41.2951 2.71978 41.146ZM13.9315 42.5665C13.6716 39.2728 12.2244 36.1855 9.85892 33.8788C7.53544 31.5342 4.43457 30.1203 1.14076 29.9038C0.989677 29.881 0.835241 29.8983 0.69293 29.9539C0.550619 30.0095 0.425431 30.1016 0.329911 30.2209C0.110324 30.4766 -0.00693536 30.8045 0.000693967 31.1415C-0.00967053 31.4644 0.0963491 31.7803 0.299428 32.0316C0.397751 32.1564 0.520227 32.2602 0.659543 32.3366C0.798858 32.4131 0.952155 32.4607 1.11028 32.4766C3.74414 32.7088 6.21272 33.8589 8.08481 35.7261C9.97512 37.5602 11.1526 40.006 11.4075 42.6275C11.4382 42.9658 11.5897 43.2818 11.8342 43.5176C12.0792 43.749 12.4058 43.8739 12.7426 43.8651C12.911 43.8678 13.078 43.8356 13.2333 43.7706C13.3886 43.7055 13.5288 43.609 13.6449 43.4871C13.7648 43.3687 13.855 43.2235 13.908 43.0634C13.961 42.9034 13.9753 42.7331 13.9497 42.5665H13.9315ZM8.8164 42.6763C8.56884 40.7345 7.67811 38.9316 6.2863 37.5551C4.92837 36.1548 3.13177 35.2619 1.19563 35.025C1.04295 35.0022 0.886995 35.0182 0.742108 35.0715C0.59722 35.1247 0.468054 35.2136 0.366491 35.3298C0.250105 35.4486 0.159238 35.5899 0.0994767 35.7451C0.0397157 35.9002 0.0123234 36.066 0.0189838 36.2321C0.0123144 36.5545 0.103736 36.8713 0.281138 37.1405C0.36408 37.2679 0.47448 37.375 0.60424 37.4542C0.733999 37.5333 0.879826 37.5824 1.03102 37.5978C2.33474 37.8149 3.54092 38.4254 4.4878 39.3475C5.43717 40.2613 6.06768 41.4561 6.2863 42.7555C6.33743 43.0759 6.50718 43.3653 6.76184 43.5664C7.01491 43.7662 7.32958 43.8718 7.65195 43.8651C7.81607 43.8701 7.9795 43.8419 8.13246 43.7822C8.28541 43.7225 8.42473 43.6325 8.54205 43.5176C8.65046 43.4086 8.73177 43.2757 8.77942 43.1296C8.82707 42.9835 8.83974 42.8282 8.8164 42.6763Z" fill="url(#paint2_linear_23_24)"/>
<path d="M17.1078 20.2163C16.8539 19.9974 16.6155 19.7611 16.3945 19.5091C15.9624 19.0157 15.4638 18.5848 14.913 18.2288C13.8832 17.5739 12.7583 17.0824 11.5781 16.7717C11.0172 17.1302 10.5556 17.6241 10.2359 18.2081C9.91628 18.792 9.74886 19.447 9.74915 20.1127C9.75483 20.9088 9.99729 21.6853 10.4457 22.3432C10.8941 23.0012 11.5281 23.5108 12.267 23.8072C12.7712 24.0087 13.3092 24.1122 13.8522 24.1121C14.7722 24.1191 15.6678 23.8153 16.3936 23.2499C17.1195 22.6845 17.6332 21.8905 17.8515 20.9967C17.6289 20.7136 17.3798 20.4523 17.1078 20.2163ZM13.6937 22.1672C13.3137 22.1734 12.9399 22.0711 12.616 21.8724C12.2921 21.6737 12.0314 21.3869 11.8647 21.0455C11.7353 20.7883 11.6684 20.5042 11.6696 20.2163C11.6727 19.9543 11.7277 19.6954 11.8313 19.4547C11.9349 19.214 12.0851 18.9961 12.2732 18.8137C12.4613 18.6312 12.6837 18.4878 12.9275 18.3916C13.1712 18.2954 13.4316 18.2484 13.6937 18.2532C13.9005 18.2568 14.1057 18.2896 14.3033 18.3508C14.7538 18.4882 15.1394 18.784 15.3888 19.1836C15.6383 19.5831 15.7347 20.0594 15.6604 20.5245C15.5861 20.9896 15.3461 21.4121 14.9846 21.7141C14.6231 22.016 14.1646 22.177 13.6937 22.1672Z" fill="url(#paint3_linear_23_24)"/>
<path d="M32.52 16.7717C31.3436 17.0818 30.2212 17.569 29.1913 18.2166C28.6431 18.5784 28.1467 19.0133 27.7159 19.5091C27.4953 19.7653 27.2569 20.0057 27.0026 20.2285C26.7402 20.4624 26.4994 20.7195 26.2832 20.9967C26.2998 21.0834 26.3222 21.169 26.3503 21.2527C26.3608 21.2985 26.3751 21.3434 26.3929 21.3869C26.3994 21.4146 26.4096 21.4413 26.4234 21.4661C26.4283 21.4924 26.4387 21.5173 26.4539 21.5393C26.4539 21.5942 26.4966 21.6429 26.5149 21.6917C26.5453 21.7697 26.582 21.8452 26.6246 21.9173C26.6795 22.0148 26.7344 22.1124 26.7953 22.2038C26.8282 22.2663 26.867 22.3255 26.9112 22.3806C26.9893 22.4919 27.0749 22.5978 27.1672 22.6976C27.1882 22.727 27.2128 22.7536 27.2404 22.7769L27.4111 22.9537C27.4717 23.0155 27.5369 23.0725 27.6062 23.1244L27.7586 23.2402C27.8139 23.2922 27.8753 23.3372 27.9415 23.3744L28.1305 23.4902C28.1575 23.5182 28.191 23.5391 28.228 23.5512C28.2816 23.5876 28.3388 23.6182 28.3987 23.6426L28.5329 23.7036C28.6359 23.7525 28.7418 23.7953 28.8499 23.8316C29.0281 23.8981 29.2116 23.949 29.3986 23.984C29.4349 23.9898 29.472 23.9898 29.5083 23.984C29.5865 24.0022 29.666 24.0144 29.7461 24.0206H29.8802C30 24.0268 30.1201 24.0268 30.2399 24.0206C30.5122 24.022 30.7839 23.9955 31.0508 23.9413L31.191 23.9109L31.3373 23.8743C31.4186 23.8573 31.4982 23.8328 31.5751 23.8011L31.7336 23.7463L31.886 23.6853C32.186 23.5591 32.4687 23.3952 32.7273 23.1976C33.0136 23.0208 33.2742 22.8054 33.5016 22.5574C33.921 22.043 34.1966 21.4267 34.3003 20.7711C34.3423 20.5562 34.3627 20.3377 34.3612 20.1188C34.3612 19.4509 34.1924 18.7939 33.8706 18.2088C33.5487 17.6236 33.0841 17.1293 32.52 16.7717ZM30.4106 22.1672C29.9238 22.1553 29.4591 21.9618 29.1078 21.6247C28.7564 21.2876 28.5438 20.8313 28.5117 20.3455C28.4796 19.8596 28.6304 19.3793 28.9344 18.9989C29.2383 18.6186 29.6736 18.3656 30.1546 18.2898C30.2378 18.2835 30.3213 18.2835 30.4045 18.2898C30.8865 18.285 31.3537 18.4554 31.7194 18.7695C32.085 19.0835 32.324 19.5197 32.392 19.9968C32.3983 20.08 32.3983 20.1636 32.392 20.2468C32.3746 20.7612 32.1584 21.2487 31.7889 21.6069C31.4193 21.9651 30.9253 22.1659 30.4106 22.1672Z" fill="url(#paint4_linear_23_24)"/>
<path d="M21.0645 28.6538L21.0096 28.3855C20.7962 27.5503 20.5767 26.8004 20.3512 26.1176C19.974 24.9156 19.4883 23.7504 18.9002 22.6364C18.6016 22.0588 18.2506 21.5098 17.8516 20.9964C17.6347 20.7142 17.3918 20.4529 17.1261 20.2161C16.8659 19.9978 16.6214 19.7615 16.3945 19.5089C15.9624 19.0155 15.4638 18.5846 14.913 18.2286C13.8832 17.5737 12.7583 17.0821 11.5781 16.7715C10.7551 16.5398 9.98693 16.3752 9.37117 16.2228L9.08463 16.1557C8.80071 16.0821 8.52496 15.98 8.26158 15.8509C7.47674 15.4269 6.82468 14.7939 6.37773 14.0219C6.16872 13.6741 5.9814 13.3137 5.81684 12.9428C5.74978 12.7965 5.65833 12.6319 5.55469 12.4551C5.91624 12.7766 6.29697 13.0759 6.69475 13.3513L6.86546 13.4671L6.9691 13.5403L7.23735 13.7171L7.58486 13.9305C7.64771 13.9726 7.71284 14.0113 7.77995 14.0463C8.28629 14.3507 8.81639 14.6137 9.36507 14.8328C9.4992 14.8815 9.63332 14.9303 9.76745 14.9669C9.90157 15.0035 10.0357 15.0461 10.1698 15.0766H10.2552H10.3832L10.5722 15.1132H10.688C10.8161 15.1437 10.9746 15.1742 11.1453 15.2229C11.9609 15.4348 12.758 15.7121 13.5291 16.0521C15.1364 16.7509 16.5875 17.7646 17.7967 19.0333C18.9035 20.2058 19.7364 21.6092 20.2353 23.1424C20.2353 23.1424 20.5524 24.252 20.7718 25.4835C20.845 25.9286 20.906 26.3797 20.9364 26.8004C20.9669 27.2211 21.0096 27.8003 21.0096 28.349C21.0462 28.4587 21.0523 28.5684 21.0645 28.6538Z" fill="url(#paint5_linear_23_24)"/>
<path d="M38.6227 12.3088C38.4939 12.5055 38.3759 12.709 38.2691 12.9185C38.108 13.2989 37.9206 13.6676 37.7082 14.022C37.2629 14.7931 36.6131 15.4261 35.8305 15.851L35.6598 15.9302C35.0135 16.1863 33.8308 16.3814 32.52 16.7533C31.3436 17.0634 30.2212 17.5506 29.1913 18.1982C28.6419 18.5656 28.1455 19.0066 27.7159 19.5089C27.4952 19.7651 27.2569 20.0055 27.0026 20.2283C26.7402 20.4623 26.4994 20.7194 26.2832 20.9965C26.1734 21.1367 26.0515 21.2952 25.9296 21.4721C24.9918 22.9116 24.265 24.4781 23.7714 26.1238C23.5946 26.6664 23.4178 27.2577 23.241 27.904C23.1312 28.3125 23.0276 28.7453 22.9178 29.2026C22.9788 28.6965 23.0215 28.1722 23.052 27.7028C23.052 27.398 23.0946 27.0931 23.1129 26.8676C23.1477 26.4011 23.2087 25.9371 23.2958 25.4775C23.5092 24.2582 23.814 23.2096 23.814 23.2096C24.3266 21.6229 25.1939 20.1738 26.3502 18.9724C27.5427 17.7606 28.9589 16.7917 30.5203 16.1192C31.5856 15.6336 32.7082 15.2853 33.8613 15.0828C33.9644 15.06 34.0662 15.0315 34.1661 14.9974C34.2694 14.9705 34.3712 14.9379 34.4709 14.8999L34.6355 14.8389L34.9099 14.7292L35.1477 14.6256L35.3732 14.5219L35.9829 14.2232L36.3731 13.9976C36.495 13.9305 36.6108 13.8574 36.7084 13.7903L36.8059 13.7293L36.9401 13.644L37.2327 13.4489L37.3607 13.3575C37.8052 13.0376 38.2269 12.6872 38.6227 12.3088Z" fill="url(#paint6_linear_23_24)"/>
<path d="M59.1875 13.0532C61.4531 13.0532 63.3945 13.8774 65.0117 15.5259C66.6367 17.1743 67.4492 19.147 67.4492 21.4438C67.4492 23.7798 66.6328 25.7642 65 27.397C63.3672 29.0298 61.3828 29.8462 59.0469 29.8462C56.7266 29.8462 54.7461 29.0259 53.1055 27.3853C51.4648 25.7446 50.6445 23.7642 50.6445 21.4438C50.6445 19.1001 51.4688 17.1157 53.1172 15.4907C54.7734 13.8657 56.7969 13.0532 59.1875 13.0532ZM59.0469 17.7642C58.0703 17.7642 57.2383 18.1235 56.5508 18.8423C55.8633 19.561 55.5195 20.4282 55.5195 21.4438C55.5195 22.4595 55.8633 23.3267 56.5508 24.0454C57.2461 24.7642 58.0781 25.1235 59.0469 25.1235C60.0312 25.1235 60.8633 24.7681 61.543 24.0571C62.2305 23.3384 62.5742 22.4673 62.5742 21.4438C62.5742 20.4204 62.2305 19.5532 61.543 18.8423C60.8633 18.1235 60.0312 17.7642 59.0469 17.7642ZM69.3711 17.9282H73.7539V24.2212C73.7539 24.7134 73.8047 25.0571 73.9062 25.2524C74.0078 25.4399 74.1914 25.5337 74.457 25.5337C74.9492 25.5337 75.1953 25.0962 75.1953 24.2212V17.9282H79.5781V24.2212C79.5781 24.7134 79.6289 25.0571 79.7305 25.2524C79.8398 25.4399 80.0273 25.5337 80.293 25.5337C80.7773 25.5337 81.0195 25.0962 81.0195 24.2212V17.9282H85.4023V25.1235C85.4023 26.436 84.9609 27.5532 84.0781 28.4751C83.1953 29.3892 82.125 29.8462 80.8672 29.8462C79.5703 29.8462 78.4062 29.2993 77.375 28.2056C76.2344 29.2993 75.0859 29.8462 73.9297 29.8462C72.4688 29.8462 71.2969 29.3149 70.4141 28.2524C69.7188 27.4165 69.3711 26.2095 69.3711 24.6313V17.9282ZM92.3633 13.4517V29.4478H87.9805V13.4517H92.3633ZM106.086 21.6313L111.066 21.7603C110.738 24.3384 109.844 26.3306 108.383 27.7368C106.93 29.1431 105.031 29.8462 102.688 29.8462C100.305 29.8462 98.3086 29.0493 96.6992 27.4556C95.0977 25.854 94.2969 23.8696 94.2969 21.5024C94.2969 19.1196 95.1133 17.1157 96.7461 15.4907C98.3867 13.8657 100.406 13.0532 102.805 13.0532C105.164 13.0532 107.133 13.8501 108.711 15.4438C109.805 16.5454 110.578 18.0806 111.031 20.0493L105.934 20.3892C105.363 18.6392 104.281 17.7642 102.688 17.7642C101.672 17.7642 100.832 18.1157 100.168 18.8188C99.5117 19.522 99.1836 20.4165 99.1836 21.5024C99.1836 22.5493 99.5078 23.4165 100.156 24.104C100.805 24.7837 101.625 25.1235 102.617 25.1235C103.625 25.1235 104.426 24.8228 105.02 24.2212C105.621 23.6196 105.977 22.7563 106.086 21.6313ZM119.48 25.0649V29.6001C119.121 29.6626 118.793 29.6938 118.496 29.6938C116.738 29.6938 115.273 29.1157 114.102 27.9595C112.93 26.8032 112.344 25.354 112.344 23.6118C112.344 21.9165 112.934 20.479 114.113 19.2993C115.301 18.1196 116.742 17.5298 118.438 17.5298C120.328 17.5298 121.816 18.0845 122.902 19.1938C123.996 20.2954 124.543 21.8032 124.543 23.7173V29.4478H120.16V24.0337C120.16 23.4165 120.008 22.9243 119.703 22.5571C119.406 22.1899 119.004 22.0063 118.496 22.0063C118.035 22.0063 117.637 22.1743 117.301 22.5103C116.965 22.8462 116.797 23.2446 116.797 23.7056C116.797 24.1899 116.949 24.5884 117.254 24.9009C117.559 25.2134 117.945 25.3696 118.414 25.3696C118.797 25.3696 119.152 25.2681 119.48 25.0649ZM134.422 17.9282V22.5454C133.805 22.5454 133.379 22.6626 133.145 22.897C132.918 23.1235 132.773 23.5767 132.711 24.2563C132.508 26.5142 131.633 28.1079 130.086 29.0376C129.266 29.522 128.102 29.7642 126.594 29.7642H125.984V25.1235H126.184C126.887 25.1235 127.387 24.979 127.684 24.6899C127.988 24.3931 128.164 23.8774 128.211 23.1431C128.273 21.9478 128.383 21.1079 128.539 20.6235C128.703 20.1392 129.031 19.6587 129.523 19.1821C130.383 18.3462 131.574 17.9282 133.098 17.9282H134.422ZM139.766 13.4517V17.9282H141.734V22.5571H139.766C139.766 23.4868 139.91 24.1274 140.199 24.479C140.496 24.8306 141.035 25.0063 141.816 25.0063V29.6118C141.59 29.6196 141.422 29.6235 141.312 29.6235C140.32 29.6235 139.383 29.3931 138.5 28.9321C137.625 28.4712 136.922 27.8462 136.391 27.0571C135.719 26.0493 135.383 24.7134 135.383 23.0493V13.4517H139.766Z" fill="url(#paint7_linear_23_24)"/>
<defs>
<linearGradient id="paint0_linear_23_24" x1="0.104126" y1="4.8103" x2="38.9277" y2="48.4121" gradientUnits="userSpaceOnUse">
<stop stop-color="#E54B3C"/>
<stop offset="1" stop-color="#FF1700"/>
</linearGradient>
<linearGradient id="paint1_linear_23_24" x1="3.32947" y1="0" x2="21.6601" y2="32.1922" gradientUnits="userSpaceOnUse">
<stop stop-color="#E54B3C"/>
<stop offset="1" stop-color="#FF1700"/>
</linearGradient>
<linearGradient id="paint2_linear_23_24" x1="0" y1="29.894" x2="14.0017" y2="43.856" gradientUnits="userSpaceOnUse">
<stop stop-color="#E54B3C"/>
<stop offset="1" stop-color="#FF1700"/>
</linearGradient>
<linearGradient id="paint3_linear_23_24" x1="9.74915" y1="16.7717" x2="17.0539" y2="24.8348" gradientUnits="userSpaceOnUse">
<stop stop-color="#E54B3C"/>
<stop offset="1" stop-color="#FF1700"/>
</linearGradient>
<linearGradient id="paint4_linear_23_24" x1="26.2832" y1="16.7717" x2="33.4949" y2="24.8032" gradientUnits="userSpaceOnUse">
<stop stop-color="#E54B3C"/>
<stop offset="1" stop-color="#FF1700"/>
</linearGradient>
<linearGradient id="paint5_linear_23_24" x1="5.55469" y1="12.4551" x2="21.7381" y2="27.9502" gradientUnits="userSpaceOnUse">
<stop stop-color="#E54B3C"/>
<stop offset="1" stop-color="#FF1700"/>
</linearGradient>
<linearGradient id="paint6_linear_23_24" x1="22.9178" y1="12.3088" x2="39.7667" y2="27.972" gradientUnits="userSpaceOnUse">
<stop stop-color="#E54B3C"/>
<stop offset="1" stop-color="#FF1700"/>
</linearGradient>
<linearGradient id="paint7_linear_23_24" x1="50" y1="4.44775" x2="73.0758" y2="65.7633" gradientUnits="userSpaceOnUse">
<stop stop-color="#E54B3C"/>
<stop offset="1" stop-color="#FF1700"/>
</linearGradient>
</defs>
</svg>
