<svg width="79" height="48" viewBox="0 0 79 48" fill="none" xmlns="http://www.w3.org/2000/svg">
<g clip-path="url(#clip0_56_6678)">
<path d="M66.2213 22.0709L65.9844 23.4858H65.9536C65.8361 23.3815 65.7158 23.2809 65.5918 23.1859C64.3924 22.2711 62.8872 21.8082 61.1152 21.8082C59.8461 21.7933 58.5926 22.0888 57.464 22.6689L57.5657 22.0709H45.1787L41.5219 16.6458L46.9702 8.71042L58.6662 8.80357L56.8196 4.01941L48.4027 4.33798C47.5669 4.37136 46.7505 4.60062 46.0197 5.00726C45.2889 5.41389 44.6641 5.9865 44.1957 6.67883L39.5 13.6455L34.8043 6.67883C34.3358 5.9862 33.7107 5.4134 32.9795 5.00675C32.2483 4.60009 31.4316 4.371 30.5954 4.33798L22.1804 4.01941L20.331 8.80357L32.027 8.71042L37.4753 16.6458L33.8185 22.0709H13.8102L13.6236 23.2101C12.5819 22.4537 11.2035 22.0709 9.52014 22.0709H2.64863L2.32408 24.0158L0.452319 35.205L0 37.9175H11.3182L9.63299 48H63.0532L64.7394 37.9175H76.5509L76.8792 35.9762L77.3138 33.4016L77.7736 30.6854H76.7897L77.0443 29.1791H77.81L78.1355 27.2342L78.5467 24.7834L79 22.0709H66.2213ZM39.5 19.5903L41.203 22.0709H37.797L39.5 19.5903ZM51.0971 37.9408L49.4911 37.9659L47.8851 37.9818L44.6741 38.0106L38.2503 38.033L31.8264 38.005C29.6861 37.9827 27.5448 37.9743 25.4035 37.9352C21.1209 37.8737 16.8393 37.7824 12.5567 37.6092C16.8393 37.4359 21.1209 37.3455 25.4035 37.2831C27.5485 37.2449 29.6861 37.2366 31.8264 37.2133L38.2503 37.1909L44.6741 37.2123L47.8851 37.2422L49.4911 37.258L51.0971 37.2822C55.3796 37.3437 59.6613 37.435 63.9439 37.6092C59.6613 37.788 55.3796 37.8793 51.0971 37.9398V37.9408Z" fill="#F4F4F4"/>
<path d="M42.7501 3.24629C42.7516 3.98901 42.4959 4.70939 42.0264 5.28534C41.9504 5.38075 41.8688 5.47157 41.782 5.55734C41.6691 5.66821 41.5485 5.77093 41.4211 5.86473C40.7572 6.35046 39.9334 6.56629 39.1162 6.46859C38.2991 6.37089 37.5495 5.96695 37.0191 5.33843C36.9968 5.31235 36.9744 5.28534 36.9529 5.25833C36.4961 4.68165 36.2489 3.96707 36.252 3.23171C36.255 2.49636 36.5081 1.78385 36.9697 1.21097C37.4861 0.569853 38.2271 0.148704 39.0427 0.032825C39.8583 -0.0830539 40.6875 0.114999 41.3623 0.586872C41.4742 0.663401 41.5808 0.747429 41.6813 0.838376C41.7887 0.935414 41.8894 1.03967 41.9825 1.15043C42.4797 1.73567 42.7519 2.47874 42.7501 3.24629Z" fill="#FB7F3F"/>
<path d="M38.5898 3.29841C38.5933 4.25328 38.2557 5.17808 37.6376 5.9066C37.407 5.74565 37.1985 5.55525 37.0174 5.34025C37.4934 4.76696 37.7528 4.04502 37.7505 3.30027C37.7489 2.53347 37.4731 1.79247 36.9727 1.21092C37.1504 0.990505 37.3564 0.794444 37.5854 0.627808C38.2334 1.36687 38.5904 2.316 38.5898 3.29841Z" fill="#F4F4F4"/>
<path d="M42.0255 5.28538C41.9495 5.38079 41.8679 5.47161 41.7812 5.55738C41.6683 5.66825 41.5477 5.77097 41.4203 5.86477C40.7795 5.13775 40.4212 4.20524 40.4104 3.23673C40.3996 2.26822 40.7371 1.32799 41.3615 0.586914C41.4734 0.663443 41.58 0.747471 41.6805 0.838418C41.7879 0.935456 41.8885 1.03972 41.9817 1.15047C41.5057 1.72408 41.2462 2.44634 41.2487 3.19138C41.2491 3.95962 41.5246 4.70236 42.0255 5.28538Z" fill="#F4F4F4"/>
<path d="M30.9891 14.9384C30.9896 15.7802 30.7418 16.6035 30.2766 17.3055C29.8115 18.0075 29.1496 18.5571 28.3737 18.8857C27.5977 19.2142 26.742 19.3073 25.9135 19.1531C25.0849 18.999 24.3202 18.6045 23.7147 18.0189C23.4154 17.7294 23.1594 17.3985 22.9546 17.0361C22.5942 16.3956 22.4054 15.6731 22.4063 14.9384C22.4062 14.6984 22.4262 14.4588 22.4659 14.2221C22.6114 13.3625 23.0159 12.5677 23.6255 11.9437C24.2351 11.3198 25.0207 10.8964 25.8775 10.7301C26.7343 10.5638 27.6215 10.6624 28.4207 11.0129C29.2199 11.3634 29.893 11.949 30.3503 12.6916C30.7663 13.367 30.9864 14.1445 30.9863 14.9375L30.9891 14.9384Z" fill="#FB7F3F"/>
<path d="M29.3188 13.7862L28.845 13.041C29.6117 13.2907 30.3205 13.6913 30.9294 14.2193C30.8388 13.6757 30.6431 13.1549 30.3531 12.6861C29.8765 12.4249 29.3722 12.2174 28.8497 12.0676C28.9331 11.9926 29.0347 11.9409 29.1444 11.9176L29.6378 11.8123C29.3397 11.5307 29.0024 11.2938 28.6361 11.1091C28.3003 11.2596 28.0282 11.5234 27.8677 11.8543C27.6354 11.8189 27.4014 11.7946 27.1645 11.7816V10.6787C26.8545 10.6452 26.5418 10.6452 26.2319 10.6787V11.7881C26.0052 11.8012 25.7805 11.8235 25.5576 11.8571C25.3952 11.5226 25.1174 11.2579 24.7751 11.1119C24.4059 11.2966 24.0656 11.5341 23.7651 11.817L24.2818 11.9269C24.3884 11.9495 24.4873 11.9992 24.569 12.0713C24.0397 12.2199 23.529 12.4284 23.047 12.6926C22.7568 13.1615 22.5604 13.6822 22.4688 14.2259C23.088 13.6903 23.8099 13.2862 24.5905 13.0382L24.1074 13.7862C23.6111 14.5628 23.2668 15.4263 23.0927 16.331L22.9574 17.0325C23.1622 17.3948 23.4182 17.7258 23.7175 18.0152L24.0085 16.508C24.1602 15.7185 24.4606 14.965 24.8936 14.2873L25.4708 13.3828C25.5894 13.1982 25.6676 12.9906 25.7003 12.7737C25.8768 12.7476 26.054 12.7289 26.2319 12.7178V19.1982C26.5418 19.2317 26.8545 19.2317 27.1645 19.1982V12.7215C27.351 12.7336 27.5375 12.7532 27.724 12.782C27.7562 12.9974 27.8337 13.2034 27.9516 13.3866L28.5289 14.2911C28.9617 14.9685 29.262 15.7217 29.4139 16.5108L29.7003 17.9965C30.0001 17.7027 30.2552 17.3666 30.4575 16.9989L30.3298 16.3348C30.1572 15.429 29.8142 14.5642 29.3188 13.7862Z" fill="#F4F4F4"/>
<path d="M54.0034 17.1834L53.9754 17.2113C53.3873 17.7958 52.6969 18.2678 51.9385 18.6039C51.863 18.6384 51.7875 18.671 51.7101 18.6971C50.9376 19.0067 50.1171 19.1801 49.2853 19.2094C48.9296 19.2242 48.5734 19.2139 48.2193 19.1786C48.0321 19.1527 47.8585 19.0664 47.7248 18.9329C47.5912 18.7994 47.5048 18.626 47.4788 18.439C47.4434 18.0853 47.4331 17.7295 47.448 17.3743C47.4775 16.5437 47.6504 15.7243 47.9591 14.9524C47.9908 14.8751 48.0234 14.7978 48.0579 14.7214C48.3953 13.9622 48.8695 13.2713 49.4569 12.6833L49.4774 12.6628C50.0661 12.0761 50.7578 11.6025 51.5179 11.2656C51.5944 11.2311 51.6718 11.1985 51.7492 11.1668C52.5221 10.8587 53.3424 10.6857 54.174 10.6554C54.5297 10.6414 54.8858 10.6519 55.24 10.6871C55.4272 10.7131 55.6008 10.7994 55.7345 10.9329C55.8681 11.0663 55.9545 11.2397 55.9805 11.4267C56.0157 11.7805 56.0263 12.1362 56.0122 12.4914C55.982 13.3223 55.8081 14.1416 55.4983 14.9133C55.4685 14.9906 55.4359 15.0661 55.4051 15.1415C55.0668 15.902 54.5917 16.5941 54.0034 17.1834Z" fill="#FB7F3F"/>
<path d="M56.0091 12.4988C55.6057 11.7084 54.9622 11.0658 54.1709 10.6628C53.3392 10.6931 52.519 10.8661 51.7461 11.1742C52.2567 11.0943 52.779 11.1361 53.2703 11.2962C53.7617 11.4563 54.2082 11.7302 54.5733 12.0955C54.9385 12.4608 55.2121 12.9071 55.3716 13.3981C55.5312 13.8891 55.5723 14.4108 55.4915 14.9207C55.8026 14.1493 55.9777 13.3299 56.0091 12.4988Z" fill="#F4F4F4"/>
<path d="M48.8798 17.7823C48.5144 17.4175 48.2405 16.9716 48.0804 16.4809C47.9203 15.9903 47.8784 15.4688 47.9583 14.959C47.6497 15.7309 47.4768 16.5502 47.4473 17.3809C47.8496 18.1715 48.4929 18.8141 49.2845 19.2159C50.1164 19.1866 50.9368 19.0133 51.7093 18.7036C51.1984 18.784 50.6756 18.7425 50.1838 18.5824C49.692 18.4223 49.2451 18.1481 48.8798 17.7823Z" fill="#F4F4F4"/>
<path d="M53.2083 12.4635C53.2046 12.4385 53.1957 12.4145 53.1823 12.393C53.169 12.3716 53.1514 12.353 53.1306 12.3386C53.1099 12.3241 53.0864 12.314 53.0616 12.3089C53.0368 12.3038 53.0112 12.3038 52.9864 12.3089C52.7104 12.3596 52.4404 12.4386 52.1806 12.5445C52.0765 12.4735 51.961 12.4206 51.8393 12.388C51.6489 12.3344 51.4459 12.3472 51.2638 12.4244C51.249 12.431 51.2366 12.442 51.2284 12.456C51.223 12.465 51.2195 12.475 51.218 12.4853C51.2165 12.4957 51.217 12.5062 51.2196 12.5164C51.2222 12.5265 51.2268 12.536 51.2331 12.5444C51.2394 12.5527 51.2473 12.5597 51.2564 12.565C51.4028 12.6517 51.5231 12.7252 51.6294 12.8035C51.3136 12.9809 51.0167 13.19 50.7434 13.4276C50.6951 13.4076 50.6456 13.3908 50.5951 13.3773C50.4047 13.3242 50.2019 13.337 50.0197 13.4136C50.0051 13.4205 49.9928 13.4315 49.9843 13.4453C49.9789 13.4543 49.9754 13.4642 49.9739 13.4746C49.9724 13.4849 49.9729 13.4955 49.9755 13.5056C49.9781 13.5157 49.9827 13.5253 49.989 13.5336C49.9953 13.542 50.0032 13.549 50.0123 13.5543C50.1512 13.6362 50.2659 13.707 50.3695 13.7806C50.1195 14.0477 49.8979 14.3399 49.7082 14.6525C49.6756 14.6395 49.6423 14.6283 49.6084 14.619C49.4181 14.5653 49.2151 14.5782 49.033 14.6553C49.018 14.6616 49.0055 14.6728 48.9976 14.687C48.9922 14.696 48.9887 14.7059 48.9871 14.7163C48.9856 14.7266 48.9862 14.7372 48.9888 14.7473C48.9914 14.7574 48.996 14.7669 49.0023 14.7753C49.0086 14.7837 49.0165 14.7907 49.0256 14.796C49.1794 14.8891 49.3053 14.9646 49.4191 15.0475C49.4359 15.0596 49.4499 15.0726 49.4658 15.0847C49.2905 15.4355 49.165 15.8088 49.0927 16.1941C49.0873 16.2295 49.0919 16.2656 49.1059 16.2985C49.1199 16.3314 49.1428 16.3598 49.172 16.3804C49.2137 16.4092 49.2651 16.4202 49.3149 16.4111C49.3647 16.4021 49.4089 16.3736 49.4378 16.332C49.6159 16.0749 49.7875 15.8262 49.9638 15.5868L49.9834 15.6129C50.0745 15.7394 50.1588 15.8706 50.2361 16.006C50.2441 16.0202 50.2565 16.0313 50.2715 16.0376C50.281 16.042 50.2913 16.0445 50.3017 16.0449C50.3122 16.0453 50.3226 16.0436 50.3324 16.04C50.3422 16.0363 50.3511 16.0308 50.3588 16.0237C50.3664 16.0166 50.3726 16.008 50.3769 15.9985C50.4537 15.8166 50.4665 15.614 50.4133 15.4238C50.3878 15.3259 50.3492 15.2319 50.2986 15.1443C50.5149 14.8761 50.7406 14.6199 50.9794 14.3749C51.0615 14.4867 51.137 14.6106 51.2275 14.7624C51.2363 14.7759 51.2485 14.7868 51.2629 14.7941C51.2822 14.8026 51.3041 14.8032 51.3238 14.7957C51.3436 14.7882 51.3595 14.7732 51.3683 14.754C51.446 14.5723 51.4588 14.3694 51.4047 14.1793C51.3898 14.1218 51.3698 14.0656 51.345 14.0116C51.5669 13.8058 51.7982 13.6074 52.0398 13.4192C52.0827 13.3847 52.1274 13.3512 52.1713 13.3177C52.1853 13.3363 52.2002 13.354 52.2132 13.3736C52.3044 13.5001 52.3887 13.6313 52.466 13.7667C52.4742 13.7806 52.4866 13.7917 52.5014 13.7983C52.5109 13.8028 52.5212 13.8054 52.5316 13.8059C52.5421 13.8063 52.5526 13.8047 52.5624 13.801C52.5722 13.7974 52.5812 13.7918 52.5888 13.7846C52.5965 13.7774 52.6026 13.7688 52.6068 13.7592C52.684 13.5773 52.6969 13.3746 52.6432 13.1845C52.6275 13.1253 52.6066 13.0676 52.5807 13.0121C52.756 12.8883 52.936 12.7653 53.1188 12.6395C53.1482 12.621 53.1721 12.5948 53.1878 12.5638C53.2036 12.5328 53.2107 12.4982 53.2083 12.4635Z" fill="#F4F4F4"/>
<path d="M16.6736 42.2135H18.6601L18.2479 44.6801H17.5951L17.555 44.1855C17.2994 44.5736 16.8922 44.768 16.3332 44.7686C15.9241 44.7686 15.5899 44.6808 15.3307 44.505C15.075 44.3334 14.8678 44.0989 14.7291 43.8241C14.5812 43.5187 14.5083 43.1824 14.5165 42.8432C14.4996 42.1381 14.7269 41.4488 15.16 40.8917C15.3599 40.6285 15.62 40.4169 15.9186 40.2746C16.2171 40.1324 16.5454 40.0635 16.876 40.0739C17.8864 40.0739 18.519 40.5564 18.7739 41.5214L17.5363 41.7226C17.4505 41.3227 17.2251 41.1228 16.8602 41.1228C16.53 41.1228 16.2934 41.3271 16.1504 41.7357C16.0114 42.1206 15.9389 42.5263 15.9359 42.9355C15.9359 43.459 16.1433 43.7207 16.558 43.7207C16.8816 43.7207 17.1176 43.5344 17.2491 43.1618H16.5095L16.6736 42.2135Z" fill="#051427"/>
<path d="M22.6011 43.7599H21.3952L20.9746 44.6802H19.8555L21.9408 40.1802H23.3546L24.0541 44.6802H22.727L22.6011 43.7599ZM22.5209 42.8284L22.3418 41.5243L21.7487 42.8284H22.5209Z" fill="#051427"/>
<path d="M31.3784 40.1802L30.6258 44.6802H29.3574L29.7603 42.2835C29.8023 42.0376 29.8535 41.7796 29.9226 41.5122C29.9748 41.2942 30.0108 41.1281 30.0307 41.0139C30.0046 41.0819 29.9664 41.1853 29.9151 41.3241C29.8079 41.6119 29.7081 41.8578 29.6185 42.0627L28.4518 44.6802H27.6405L27.3271 42.0627C27.2985 41.8317 27.2789 41.5855 27.2683 41.3241C27.259 41.1676 27.2506 41.0446 27.2413 40.9608C27.1791 41.5818 27.111 42.1183 27.0371 42.5704L26.6845 44.6802H25.668L26.4187 40.1802H28.2308L28.4733 42.1708C28.4929 42.3338 28.5106 42.4502 28.5255 42.5173C28.5636 42.3991 28.6091 42.2833 28.6617 42.1708L29.5542 40.1802H31.3784Z" fill="#051427"/>
<path d="M36.1185 43.6444L35.9432 44.6802H32.623L33.3757 40.1802H36.6137L36.4486 41.1657H34.5153L34.3987 41.8708H36.0224L35.8574 42.8489H34.2365L34.105 43.6463L36.1185 43.6444Z" fill="#051427"/>
<path d="M40.6191 44.6802L41.3718 40.1802H43.237C43.5172 40.1741 43.797 40.2055 44.0689 40.2733C44.2903 40.3379 44.4846 40.4729 44.6221 40.6578C44.7597 40.8428 44.833 41.0676 44.8308 41.298C44.8369 41.5564 44.7438 41.8073 44.5706 41.9994C44.3837 42.1987 44.1386 42.334 43.8702 42.386C44.3676 42.5605 44.6163 42.8871 44.6163 43.3659C44.6197 43.7064 44.4926 44.0354 44.261 44.2853C44.0254 44.5486 43.6321 44.6805 43.0812 44.6812L40.6191 44.6802ZM42.0908 43.6873H42.7642C42.9731 43.6873 43.1173 43.6432 43.1969 43.555C43.2717 43.478 43.3141 43.3753 43.3153 43.2681C43.3176 43.2103 43.307 43.1527 43.2845 43.0994C43.2619 43.0461 43.2279 42.9984 43.1848 42.9598C43.0742 42.8746 42.9361 42.8331 42.7968 42.8433H42.2316L42.0908 43.6873ZM42.3892 41.9006H42.9013C43.3135 41.9006 43.5196 41.7637 43.5196 41.4917C43.5196 41.252 43.3564 41.1322 43.03 41.1322H42.5142L42.3892 41.9006Z" fill="#FB7F3F"/>
<path d="M49.6986 43.6444L49.5232 44.6802H46.2031L46.9557 40.1802H50.1938L50.0287 41.1657H48.0963L47.9788 41.8708H49.6025L49.4374 42.8489H47.8166L47.6851 43.6463L49.6986 43.6444Z" fill="#FB7F3F"/>
<path d="M53.8304 41.202L53.2466 44.6802H51.941L52.5248 41.202H51.5586L51.733 40.1671H54.9971L54.8255 41.202H53.8304Z" fill="#FB7F3F"/>
<path d="M60.0318 41.2253L58.8735 41.5187C58.8568 41.4516 58.8261 41.3887 58.7836 41.3341C58.741 41.2796 58.6874 41.2346 58.6264 41.202C58.494 41.1248 58.3432 41.0849 58.1899 41.0865C57.8933 41.0865 57.745 41.1855 57.745 41.3836C57.7438 41.4443 57.7662 41.5031 57.8075 41.5476C57.9127 41.6273 58.0324 41.6859 58.1601 41.7199L58.8763 41.9751C59.0653 42.0423 59.2415 42.1409 59.3976 42.2667C59.545 42.378 59.6639 42.5226 59.7446 42.6886C59.8155 42.8419 59.8518 43.0088 59.8509 43.1777C59.8545 43.3942 59.8079 43.6087 59.7147 43.8042C59.6215 43.9997 59.4843 44.1711 59.3137 44.3048C58.9562 44.601 58.4793 44.7491 57.8831 44.7491C57.4191 44.7601 56.9599 44.6533 56.5485 44.4389C56.1723 44.2368 55.888 43.8985 55.7539 43.4935L57.0549 43.2392C57.1668 43.5577 57.4441 43.717 57.8868 43.717C58.0279 43.7289 58.169 43.6935 58.2878 43.6164C58.3246 43.5903 58.3549 43.556 58.3763 43.5163C58.3976 43.4765 58.4095 43.4324 58.4109 43.3873C58.4119 43.3351 58.3951 43.2842 58.3634 43.2429C58.3367 43.2045 58.3016 43.1726 58.2608 43.1497C58.2241 43.1311 58.0531 43.0656 57.7478 42.9532C57.4512 42.8499 57.161 42.7292 56.8786 42.5918C56.7076 42.4977 56.5642 42.3606 56.4627 42.194C56.3481 42.008 56.2902 41.7928 56.2958 41.5746C56.2927 41.3786 56.3315 41.1843 56.4097 41.0045C56.4878 40.8248 56.6035 40.6637 56.749 40.5322C57.0524 40.2472 57.5153 40.105 58.1377 40.1056C58.5643 40.0933 58.9862 40.197 59.3585 40.4055C59.6791 40.5834 59.9198 40.8765 60.0318 41.2253Z" fill="#FB7F3F"/>
<path d="M11.0775 30.8996L12.2899 35.5888H8.97539L7.98961 31.3337H6.66436L5.94905 35.5888H2.75391L4.62473 24.3997H9.5135C10.8428 24.3997 11.8276 24.6906 12.468 25.2725C13.1084 25.8543 13.4292 26.6452 13.4305 27.645C13.4305 29.2465 12.6462 30.3314 11.0775 30.8996ZM7.05606 29.0059H8.31509C9.52625 29.0059 10.1318 28.596 10.1318 27.7763C10.1318 27.0883 9.62386 26.7439 8.60793 26.7433H7.43564L7.05606 29.0059Z" fill="#051427"/>
<path d="M22.6051 33.0141L22.1696 35.5888H13.9141L15.7849 24.3997H23.8362L23.4258 26.8504H18.62L18.3291 28.6044H22.3673L21.9569 31.031H17.9262L17.5979 33.0141H22.6051Z" fill="#FB7F3F"/>
<path d="M34.7198 24.3997L29.6837 35.5888H26.44L24.2559 24.3997H27.6748L28.9115 31.6206C28.9892 31.4058 29.3455 30.5531 29.9803 29.0627L31.9891 24.3997H34.7198Z" fill="#FB7F3F"/>
<path d="M42.4996 33.0141L42.0613 35.5888H33.8086L35.6794 24.3997H43.7307L43.3203 26.8504H38.5174L38.2264 28.6044H42.2646L41.8543 31.031H37.8216L37.4915 33.0141H42.4996Z" fill="#051427"/>
<path d="M54.8107 24.3997L52.9398 35.5888H50.4497L48.3047 31.2927C47.7178 30.1166 47.3466 29.1869 47.1912 28.5038C47.2014 28.6678 47.207 28.7963 47.207 28.8885C47.1972 29.2947 47.156 29.6996 47.0839 30.0995L46.1653 35.5888H43.4355L45.3073 24.3997H48.3243L49.5554 26.9892C50.409 28.7827 50.9642 30.1082 51.221 30.9658C51.2052 30.7413 51.1968 30.5745 51.1968 30.4656C51.1968 30.1476 51.2705 29.5409 51.4178 28.6454L52.1341 24.3997H54.8107Z" fill="#051427"/>
<path d="M60.605 29.4567H65.5479L64.522 35.5887H62.9002L62.8022 34.3591C62.1674 35.326 61.1543 35.8095 59.7628 35.8095C58.7444 35.8095 57.9135 35.5921 57.27 35.1574C56.6359 34.7299 56.1222 34.1472 55.7778 33.4649C55.4246 32.7737 55.248 31.9608 55.248 31.0262C55.248 29.1465 55.7815 27.5288 56.8484 26.1732C57.9153 24.8175 59.3379 24.14 61.1161 24.1406C63.6267 24.1406 65.1997 25.3401 65.8351 27.739L62.7575 28.2392C62.5442 27.2456 61.9846 26.7488 61.0788 26.7488C60.2581 26.7488 59.6699 27.2571 59.3142 28.2737C58.9691 29.23 58.7887 30.2379 58.7808 31.2545C58.7808 32.5586 59.2962 33.2091 60.3271 33.2059C61.1353 33.2059 61.7086 32.7442 62.0468 31.8208H60.203L60.605 29.4567Z" fill="#051427"/>
<path d="M75.0153 33.0141L74.5797 35.5888H66.3242L68.195 24.3997H76.2463L75.836 26.8504H71.0302L70.7392 28.6044H74.7774L74.3671 31.031H70.3363L70.0081 33.0141H75.0153Z" fill="#051427"/>
</g>
<defs>
<clipPath id="clip0_56_6678">
<rect width="79" height="48" fill="white"/>
</clipPath>
</defs>
</svg>
