<svg width="118" height="32" viewBox="0 0 118 32" fill="none" xmlns="http://www.w3.org/2000/svg">
<path d="M32 8.55738V23.3666C32 25.6362 31.0984 27.8128 29.4936 29.4177C27.8887 31.0225 25.7121 31.9241 23.4425 31.9241H12.6194C12.4542 31.9239 12.295 31.8627 12.1722 31.7522C12.0494 31.6417 11.9718 31.4897 11.9543 31.3255L11.91 30.7713C11.6762 27.9679 10.4406 25.3424 8.42939 23.3755C6.45095 21.3857 3.81917 20.1793 1.02036 19.9791H0.745456C0.656403 19.9791 0.568241 19.9614 0.486132 19.9269C0.404023 19.8924 0.329617 19.8419 0.267269 19.7783C0.204922 19.7148 0.155886 19.6394 0.123033 19.5566C0.0901793 19.4738 0.0741686 19.3853 0.0759378 19.2963V8.55738C0.0733167 6.78647 0.621881 5.05865 1.64554 3.61357C1.57077 4.07428 1.59342 4.54554 1.71204 4.99695C2.02498 6.57042 2.84404 7.99833 4.04427 9.06285C4.11965 9.19143 4.18616 9.31114 4.23493 9.41756C4.35334 9.68569 4.48808 9.9463 4.63841 10.1979C3.61757 11.4493 3.06418 13.0169 3.07325 14.6318C3.05935 15.9168 3.40648 17.1799 4.07512 18.2773C4.74376 19.3748 5.70705 20.2624 6.85536 20.8393C7.1736 20.9953 7.50434 21.1243 7.84412 21.2251C8.43845 21.4018 9.05527 21.4914 9.67531 21.4911C10.6564 21.4886 11.6242 21.2644 12.5064 20.8352C13.3886 20.406 14.1624 19.7829 14.7699 19.0125C14.9339 19.5091 15.0935 20.0545 15.2487 20.6619L15.3019 20.8748V20.8969C15.3356 21.3961 15.4113 21.8914 15.5281 22.3779C15.6345 22.7858 15.7808 23.0696 15.9714 23.105C16.1754 23.0696 16.3217 22.7858 16.4148 22.3779C16.5051 22.0105 16.5688 21.6371 16.6055 21.2605C16.6853 20.928 16.7607 20.6132 16.8405 20.3161C16.9691 19.8461 17.0976 19.4293 17.2262 19.0214C17.8424 19.7935 18.626 20.4154 19.5178 20.8401C20.4096 21.2649 21.3862 21.4814 22.374 21.4734C23.5376 21.4745 24.6795 21.1587 25.6772 20.56C26.6948 19.9426 27.5349 19.0719 28.1154 18.0329C28.696 16.9939 28.9971 15.822 28.9893 14.6318C28.9973 13.0171 28.444 11.4498 27.4242 10.1979C27.5779 9.94595 27.7142 9.68374 27.8321 9.41312C27.9097 9.26078 27.9956 9.11276 28.0893 8.96973C28.464 8.62323 28.8014 8.23833 29.0958 7.82135C29.6744 6.97463 30.0811 6.02255 30.2929 5.01912C30.4303 4.52369 30.4515 4.00326 30.355 3.49829C31.4285 4.96621 32.0049 6.73879 32 8.55738Z" fill="white"/>
<path d="M29.5215 2.86875C29.5215 2.86875 29.9382 5.29409 26.3734 6.73511C25.5089 7.05305 24.6147 7.2833 23.7042 7.42237C23.5047 7.44897 23.2608 7.48888 22.9504 7.55539C22.6401 7.6219 22.3785 7.69284 22.0637 7.79038C20.4719 8.27368 18.3614 9.30678 17.1509 11.475C16.9778 11.7972 16.8295 12.1322 16.7075 12.477C16.5155 12.9871 16.3946 13.5213 16.3484 14.0644C16.2996 14.4102 16.2508 14.8226 16.2109 15.3147C16.2164 15.3369 16.2168 15.3601 16.212 15.3825C16.2072 15.4049 16.1974 15.4259 16.1833 15.4439C16.1692 15.4619 16.1512 15.4765 16.1306 15.4865C16.1101 15.4966 16.0875 15.5018 16.0646 15.5018C16.0417 15.5018 16.0191 15.4966 15.9986 15.4865C15.978 15.4765 15.96 15.4619 15.9459 15.4439C15.9318 15.4259 15.9219 15.4049 15.9172 15.3825C15.9124 15.3601 15.9128 15.3369 15.9183 15.3147C15.8872 14.9378 15.8518 14.6097 15.8163 14.3171C15.7808 14.0245 15.7454 13.7983 15.7099 13.5944C15.6522 13.2796 15.599 13.049 15.5547 12.8761C15.5217 12.7395 15.4772 12.606 15.4217 12.477C15.1685 11.7849 14.8079 11.137 14.3531 10.5571C13.2049 9.20745 11.6718 8.24059 9.95913 7.78595C9.63545 7.6884 9.33395 7.61303 9.07235 7.55539C8.81075 7.49775 8.51811 7.44897 8.31859 7.42237C7.40056 7.28476 6.49883 7.05449 5.62721 6.73511C2.0801 5.29409 2.47915 2.86875 2.47915 2.86875C2.47369 2.8074 2.45395 2.74818 2.42151 2.69582C3.2179 1.84722 4.17933 1.17034 5.24679 0.706761C6.31424 0.243179 7.46519 0.00267274 8.62896 8.48191e-06H23.4382C24.5993 -0.00162757 25.7486 0.233433 26.8159 0.690836C27.8832 1.14824 28.846 1.81839 29.6456 2.66035C29.5831 2.71486 29.5397 2.78786 29.5215 2.86875Z" fill="white"/>
<path d="M1.97802 29.9245C1.87084 29.8165 1.7429 29.7314 1.60192 29.6742C1.46094 29.6171 1.30985 29.5891 1.15775 29.5919C1.00478 29.5874 0.852527 29.6146 0.710591 29.6719C0.568656 29.7291 0.440109 29.8151 0.333047 29.9245C0.224962 30.0325 0.139797 30.1612 0.082655 30.3029C0.0255133 30.4446 -0.00242842 30.5964 0.000504702 30.7492C-0.00311929 30.9014 0.024523 31.0527 0.0817217 31.1938C0.13892 31.3349 0.224459 31.4627 0.333047 31.5694C0.440368 31.6836 0.570331 31.7741 0.714628 31.8352C0.858925 31.8963 1.01438 31.9266 1.17105 31.9242C1.3231 31.9266 1.47408 31.8984 1.61503 31.8413C1.75598 31.7842 1.88402 31.6994 1.99155 31.5918C2.09908 31.4843 2.1839 31.3563 2.24099 31.2153C2.29808 31.0744 2.32626 30.9234 2.32386 30.7713C2.3298 30.6137 2.30202 30.4566 2.24238 30.3106C2.18274 30.1645 2.09261 30.0329 1.97802 29.9245ZM10.1319 30.9576C9.94297 28.5621 8.89044 26.3168 7.17011 24.6392C5.48031 22.934 3.22514 21.9058 0.829643 21.7483C0.719764 21.7317 0.607447 21.7443 0.503948 21.7847C0.400449 21.8252 0.309403 21.8922 0.239935 21.9789C0.0802358 22.1649 -0.00504389 22.4034 0.000504702 22.6484C-0.0070331 22.8833 0.070072 23.113 0.217765 23.2958C0.289273 23.3866 0.378347 23.462 0.479666 23.5177C0.580986 23.5733 0.692475 23.6079 0.807473 23.6195C2.72301 23.7883 4.51833 24.6248 5.87985 25.9827C7.25462 27.3166 8.111 29.0954 8.29632 31.0019C8.31868 31.248 8.42885 31.4777 8.60669 31.6493C8.78483 31.8175 9.02237 31.9084 9.26734 31.902C9.38977 31.904 9.51129 31.8805 9.62423 31.8332C9.73717 31.7859 9.83908 31.7157 9.92356 31.6271C10.0108 31.5409 10.0763 31.4353 10.1149 31.319C10.1534 31.2026 10.1638 31.0787 10.1453 30.9576H10.1319ZM6.41191 31.0374C6.23187 29.6252 5.58407 28.314 4.57185 27.3129C3.58426 26.2945 2.27765 25.6451 0.869548 25.4728C0.758509 25.4563 0.645086 25.4679 0.539714 25.5066C0.434341 25.5454 0.340402 25.61 0.266538 25.6945C0.181894 25.7809 0.115809 25.8837 0.0723466 25.9965C0.0288841 26.1094 0.00896242 26.2299 0.0138064 26.3507C0.00895589 26.5852 0.075444 26.8156 0.204464 27.0114C0.264785 27.104 0.345076 27.182 0.439446 27.2395C0.533816 27.297 0.639872 27.3327 0.749833 27.3439C1.69799 27.5018 2.57521 27.9459 3.26385 28.6165C3.9543 29.2811 4.41285 30.15 4.57185 31.095C4.60903 31.328 4.73248 31.5385 4.91769 31.6847C5.10175 31.83 5.33059 31.9068 5.56504 31.902C5.6844 31.9056 5.80326 31.8851 5.9145 31.8417C6.02574 31.7982 6.12706 31.7328 6.21239 31.6493C6.29123 31.57 6.35036 31.4734 6.38502 31.3671C6.41967 31.2608 6.42889 31.1479 6.41191 31.0374Z" fill="white"/>
<path d="M12.4422 14.7027C12.2575 14.5435 12.0842 14.3716 11.9234 14.1883C11.6092 13.8295 11.2465 13.5161 10.846 13.2572C10.0971 12.7809 9.27892 12.4234 8.42062 12.1975C8.01267 12.4582 7.67696 12.8175 7.44448 13.2421C7.212 13.6668 7.09025 14.1432 7.09045 14.6273C7.09459 15.2063 7.27092 15.771 7.59702 16.2495C7.92313 16.728 8.38423 17.0987 8.92165 17.3142C9.28832 17.4608 9.67959 17.536 10.0745 17.5359C10.7436 17.5411 11.3949 17.3201 11.9228 16.9089C12.4507 16.4977 12.8243 15.9203 12.9831 15.2702C12.8212 15.0643 12.64 14.8743 12.4422 14.7027ZM9.95918 16.1215C9.68286 16.126 9.41099 16.0516 9.17542 15.9071C8.93984 15.7626 8.75031 15.554 8.62901 15.3057C8.53492 15.1186 8.48631 14.912 8.48713 14.7027C8.48944 14.5121 8.52941 14.3238 8.60475 14.1488C8.68009 13.9737 8.78932 13.8153 8.92613 13.6826C9.06295 13.5499 9.22466 13.4455 9.40195 13.3756C9.57924 13.3056 9.76862 13.2714 9.95918 13.2749C10.1096 13.2775 10.2589 13.3014 10.4026 13.3459C10.7302 13.4459 11.0106 13.661 11.192 13.9516C11.3734 14.2421 11.4436 14.5885 11.3896 14.9268C11.3355 15.265 11.1609 15.5723 10.898 15.7919C10.6351 16.0115 10.3017 16.1286 9.95918 16.1215Z" fill="white"/>
<path d="M23.6507 12.1975C22.7952 12.423 21.9789 12.7774 21.2298 13.2483C20.8311 13.5115 20.4701 13.8277 20.1568 14.1883C19.9964 14.3747 19.823 14.5495 19.6381 14.7115C19.4472 14.8817 19.2721 15.0686 19.1149 15.2702C19.127 15.3333 19.1432 15.3955 19.1636 15.4564C19.1713 15.4897 19.1817 15.5224 19.1947 15.554C19.1993 15.5741 19.2068 15.5935 19.2168 15.6116C19.2204 15.6307 19.2279 15.6489 19.239 15.6648C19.239 15.7047 19.2701 15.7402 19.2834 15.7757C19.3055 15.8324 19.3322 15.8873 19.3632 15.9397C19.4031 16.0107 19.443 16.0816 19.4873 16.1481C19.5112 16.1936 19.5394 16.2366 19.5716 16.2767C19.6284 16.3576 19.6906 16.4347 19.7578 16.5073C19.773 16.5286 19.7909 16.548 19.811 16.5649L19.9351 16.6935C19.9792 16.7384 20.0266 16.7799 20.077 16.8176L20.1879 16.9019C20.2281 16.9397 20.2728 16.9724 20.3209 16.9994L20.4583 17.0837C20.478 17.104 20.5024 17.1193 20.5293 17.128C20.5682 17.1545 20.6098 17.1768 20.6534 17.1945L20.751 17.2389C20.8259 17.2745 20.9029 17.3055 20.9815 17.332C21.1111 17.3803 21.2446 17.4174 21.3806 17.4428C21.407 17.4471 21.434 17.4471 21.4604 17.4428C21.5173 17.456 21.5751 17.4649 21.6333 17.4694H21.7309C21.818 17.474 21.9053 17.474 21.9925 17.4694C22.1905 17.4705 22.3881 17.4511 22.5822 17.4118L22.6842 17.3896L22.7906 17.363C22.8497 17.3506 22.9076 17.3328 22.9635 17.3098L23.0788 17.2699L23.1896 17.2256C23.4078 17.1338 23.6134 17.0146 23.8015 16.8708C24.0097 16.7423 24.1992 16.5856 24.3646 16.4053C24.6696 16.0312 24.87 15.5829 24.9454 15.1062C24.976 14.9499 24.9908 14.791 24.9898 14.6317C24.9898 14.146 24.867 13.6682 24.6329 13.2426C24.3988 12.8171 24.061 12.4576 23.6507 12.1975ZM22.1166 16.1215C21.7626 16.1128 21.4246 15.9721 21.1691 15.727C20.9135 15.4818 20.7589 15.1499 20.7356 14.7966C20.7122 14.4432 20.8219 14.0939 21.043 13.8173C21.2641 13.5407 21.5806 13.3567 21.9304 13.3016C21.9909 13.297 22.0517 13.297 22.1122 13.3016C22.4627 13.298 22.8025 13.422 23.0684 13.6504C23.3343 13.8788 23.5082 14.196 23.5576 14.543C23.5622 14.6036 23.5622 14.6643 23.5576 14.7248C23.545 15.0989 23.3878 15.4535 23.119 15.714C22.8502 15.9745 22.4909 16.1206 22.1166 16.1215Z" fill="white"/>
<path d="M15.3195 20.8392L15.2796 20.6442C15.1244 20.0367 14.9648 19.4913 14.8007 18.9947C14.5264 18.1206 14.1732 17.2732 13.7455 16.463C13.5283 16.0429 13.273 15.6436 12.9828 15.2703C12.8251 15.065 12.6484 14.875 12.4552 14.7027C12.266 14.544 12.0882 14.3721 11.9231 14.1884C11.6089 13.8295 11.2463 13.5162 10.8457 13.2573C10.0968 12.781 9.27866 12.4235 8.42036 12.1976C7.82178 12.0291 7.26311 11.9094 6.81529 11.7985L6.6069 11.7497C6.40041 11.6962 6.19987 11.6219 6.00832 11.528C5.43753 11.2197 4.9633 10.7593 4.63825 10.1979C4.48624 9.94491 4.35001 9.68281 4.23033 9.41306C4.18156 9.30665 4.11505 9.18693 4.03967 9.05835C4.30262 9.29217 4.57951 9.50983 4.86881 9.71013L4.99296 9.79438L5.06834 9.84758L5.26343 9.97617L5.51616 10.1314C5.56187 10.162 5.60923 10.1902 5.65804 10.2156C6.02629 10.437 6.41181 10.6283 6.81086 10.7876C6.9084 10.823 7.00595 10.8585 7.10349 10.8851C7.20104 10.9117 7.29858 10.9428 7.39613 10.9649H7.4582H7.55132L7.68877 10.9915H7.77301C7.86612 11.0137 7.9814 11.0359 8.10555 11.0713C8.69869 11.2255 9.27845 11.4271 9.8392 11.6744C11.0082 12.1826 12.0635 12.9198 12.9429 13.8425C13.7479 14.6953 14.3536 15.7159 14.7165 16.831C14.7165 16.831 14.947 17.638 15.1067 18.5336C15.1599 18.8573 15.2042 19.1854 15.2264 19.4913C15.2486 19.7973 15.2796 20.2185 15.2796 20.6175C15.3062 20.6974 15.3106 20.7772 15.3195 20.8392Z" fill="white"/>
<path d="M28.0889 8.9519C27.9953 9.09493 27.9094 9.24295 27.8318 9.3953C27.7146 9.67197 27.5783 9.94013 27.4239 10.1978C27.1 10.7587 26.6274 11.219 26.0582 11.528L25.9341 11.5856C25.4641 11.7719 24.6039 11.9138 23.6506 12.1842C22.795 12.4097 21.9787 12.7641 21.2297 13.2351C20.8302 13.5023 20.4691 13.823 20.1567 14.1883C19.9962 14.3747 19.8229 14.5495 19.6379 14.7116C19.4471 14.8817 19.272 15.0687 19.1147 15.2702C19.0349 15.3722 18.9463 15.4875 18.8576 15.6161C18.1755 16.663 17.647 17.8023 17.288 18.9991C17.1594 19.3938 17.0308 19.8238 16.9022 20.2938C16.8224 20.5909 16.747 20.9057 16.6672 21.2383C16.7116 20.8702 16.7426 20.4889 16.7648 20.1475C16.7648 19.9258 16.7958 19.7041 16.8091 19.5401C16.8344 19.2009 16.8788 18.8633 16.9421 18.5291C17.0973 17.6424 17.319 16.8797 17.319 16.8797C17.6918 15.7257 18.3226 14.6719 19.1635 13.7982C20.0307 12.9169 21.0607 12.2121 22.1963 11.7231C22.971 11.3699 23.7875 11.1166 24.6261 10.9693C24.7011 10.9528 24.7751 10.932 24.8478 10.9073C24.9229 10.8876 24.9969 10.864 25.0695 10.8363L25.1892 10.792L25.3887 10.7122L25.5616 10.6368L25.7257 10.5614L26.1691 10.3442L26.4528 10.1801C26.5415 10.1313 26.6258 10.0781 26.6967 10.0293L26.7676 9.985L26.8652 9.92293L27.078 9.78104L27.1711 9.71454C27.4944 9.48194 27.8011 9.22711 28.0889 8.9519Z" fill="white"/>
<path d="M47.6562 8.80005C49.5443 8.80005 51.1621 9.4869 52.5098 10.8606C53.8639 12.2343 54.541 13.8782 54.541 15.7922C54.541 17.7389 53.8607 19.3925 52.5 20.7532C51.1393 22.1139 49.4857 22.7942 47.5391 22.7942C45.6055 22.7942 43.9551 22.1106 42.5879 20.7434C41.2207 19.3762 40.5371 17.7258 40.5371 15.7922C40.5371 13.8391 41.224 12.1855 42.5977 10.8313C43.9779 9.47713 45.6641 8.80005 47.6562 8.80005ZM47.5391 12.7258C46.7253 12.7258 46.0319 13.0253 45.459 13.6243C44.8861 14.2232 44.5996 14.9459 44.5996 15.7922C44.5996 16.6386 44.8861 17.3612 45.459 17.9602C46.0384 18.5592 46.7318 18.8586 47.5391 18.8586C48.3594 18.8586 49.0527 18.5624 49.6191 17.97C50.1921 17.371 50.4785 16.6451 50.4785 15.7922C50.4785 14.9394 50.1921 14.2167 49.6191 13.6243C49.0527 13.0253 48.3594 12.7258 47.5391 12.7258ZM56.1426 12.8625H59.7949V18.1067C59.7949 18.5168 59.8372 18.8033 59.9219 18.9661C60.0065 19.1223 60.1595 19.2004 60.3809 19.2004C60.791 19.2004 60.9961 18.8359 60.9961 18.1067V12.8625H64.6484V18.1067C64.6484 18.5168 64.6908 18.8033 64.7754 18.9661C64.8665 19.1223 65.0228 19.2004 65.2441 19.2004C65.6478 19.2004 65.8496 18.8359 65.8496 18.1067V12.8625H69.502V18.8586C69.502 19.9524 69.1341 20.8834 68.3984 21.6516C67.6628 22.4133 66.7708 22.7942 65.7227 22.7942C64.6419 22.7942 63.6719 22.3385 62.8125 21.427C61.862 22.3385 60.9049 22.7942 59.9414 22.7942C58.724 22.7942 57.7474 22.3515 57.0117 21.4661C56.4323 20.7694 56.1426 19.7636 56.1426 18.4485V12.8625ZM75.3027 9.13208V22.4622H71.6504V9.13208H75.3027ZM86.7383 15.9485L90.8887 16.0559C90.6152 18.2043 89.8698 19.8645 88.6523 21.0364C87.4414 22.2083 85.8594 22.7942 83.9062 22.7942C81.9206 22.7942 80.2572 22.1301 78.916 20.802C77.5814 19.4674 76.9141 17.8137 76.9141 15.8411C76.9141 13.8554 77.5944 12.1855 78.9551 10.8313C80.3223 9.47713 82.0052 8.80005 84.0039 8.80005C85.9701 8.80005 87.6107 9.46411 88.9258 10.7922C89.8372 11.7102 90.4818 12.9895 90.8594 14.6301L86.6113 14.9133C86.1361 13.455 85.2344 12.7258 83.9062 12.7258C83.0599 12.7258 82.36 13.0188 81.8066 13.6047C81.2598 14.1907 80.9863 14.9361 80.9863 15.8411C80.9863 16.7135 81.2565 17.4361 81.7969 18.009C82.3372 18.5754 83.0208 18.8586 83.8477 18.8586C84.6875 18.8586 85.3548 18.608 85.8496 18.1067C86.3509 17.6054 86.6471 16.886 86.7383 15.9485ZM97.9004 18.8098V22.5891C97.6009 22.6412 97.3275 22.6672 97.0801 22.6672C95.6152 22.6672 94.3945 22.1855 93.418 21.2219C92.4414 20.2584 91.9531 19.0507 91.9531 17.5989C91.9531 16.1861 92.4447 14.9882 93.4277 14.0051C94.4173 13.0221 95.6185 12.5305 97.0312 12.5305C98.6068 12.5305 99.847 12.9928 100.752 13.9172C101.663 14.8352 102.119 16.0917 102.119 17.6868V22.4622H98.4668V17.9504C98.4668 17.4361 98.3398 17.026 98.0859 16.72C97.8385 16.414 97.5033 16.261 97.0801 16.261C96.696 16.261 96.3639 16.401 96.084 16.6809C95.804 16.9609 95.6641 17.2929 95.6641 17.677C95.6641 18.0806 95.791 18.4127 96.0449 18.6731C96.2988 18.9335 96.6211 19.0637 97.0117 19.0637C97.3307 19.0637 97.627 18.9791 97.9004 18.8098ZM110.352 12.8625V16.7102C109.837 16.7102 109.482 16.8079 109.287 17.0032C109.098 17.192 108.978 17.5696 108.926 18.136C108.757 20.0175 108.027 21.3456 106.738 22.1204C106.055 22.524 105.085 22.7258 103.828 22.7258H103.32V18.8586H103.486C104.072 18.8586 104.489 18.7382 104.736 18.4973C104.99 18.2499 105.137 17.8202 105.176 17.2083C105.228 16.2122 105.319 15.5123 105.449 15.1086C105.586 14.705 105.859 14.3046 106.27 13.9075C106.986 13.2109 107.979 12.8625 109.248 12.8625H110.352ZM114.805 9.13208V12.8625H116.445V16.72H114.805C114.805 17.4947 114.925 18.0286 115.166 18.3215C115.413 18.6145 115.863 18.761 116.514 18.761V22.5989C116.325 22.6054 116.185 22.6086 116.094 22.6086C115.267 22.6086 114.486 22.4166 113.75 22.0325C113.021 21.6484 112.435 21.1275 111.992 20.47C111.432 19.6301 111.152 18.5168 111.152 17.1301V9.13208H114.805Z" fill="white"/>
</svg>
